<?xml version="1.0" encoding="UTF-8"?>
<!DOCTYPE svg PUBLIC "-//W3C//DTD SVG 1.1//EN" "http://www.w3.org/Graphics/SVG/1.1/DTD/svg11.dtd">
<svg xmlns="http://www.w3.org/2000/svg" version="1.1" width="1141px" height="787px" style="shape-rendering:geometricPrecision; text-rendering:geometricPrecision; image-rendering:optimizeQuality; fill-rule:evenodd; clip-rule:evenodd" xmlns:xlink="http://www.w3.org/1999/xlink">
<g><path style="opacity:1" fill="#bdcae2" d="M 310.5,-0.5 C 311.167,-0.5 311.833,-0.5 312.5,-0.5C 315.585,3.24582 318.251,7.24582 320.5,11.5C 320.539,12.5832 320.873,13.5832 321.5,14.5C 295.708,60.4195 275.708,108.753 261.5,159.5C 261.167,159.5 260.833,159.5 260.5,159.5C 255.375,157.438 250.375,155.104 245.5,152.5C 244.817,152.863 244.15,153.196 243.5,153.5C 258.855,99.0925 281.188,47.7592 310.5,-0.5 Z"/></g>
<g><path style="opacity:1" fill="#afbfdf" d="M 320.5,11.5 C 340.058,38.124 356.391,66.7906 369.5,97.5C 377.484,115.45 384.484,133.783 390.5,152.5C 380.907,156.088 371.24,159.588 361.5,163C 327.663,172.534 294.33,171.367 261.5,159.5C 275.708,108.753 295.708,60.4195 321.5,14.5C 320.873,13.5832 320.539,12.5832 320.5,11.5 Z"/></g>
<g><path style="opacity:0.098" fill="#b40035" d="M 369.5,97.5 C 380.178,99.839 389.844,104.339 398.5,111C 422.1,131.589 441.6,155.422 457,182.5C 470.253,205.338 483.253,228.338 496,251.5C 504.084,264.67 512.417,277.67 521,290.5C 528.258,301.093 537.425,309.593 548.5,316C 562.494,319.921 576.161,318.921 589.5,313C 605.182,305.634 619.516,296.301 632.5,285C 644.731,273.438 656.231,261.271 667,248.5C 688.444,219.721 709.111,190.388 729,160.5C 762.511,117.411 798.178,115.411 836,154.5C 856.781,182.049 873.448,212.049 886,244.5C 900.389,282.944 915.056,321.277 930,359.5C 944.569,396.172 965.735,428.339 993.5,456C 1002.32,463.073 1011.98,468.573 1022.5,472.5C 1020.74,475.009 1019.24,477.676 1018,480.5C 1017.4,492.214 1017.9,503.881 1019.5,515.5C 1013.46,521.535 1007.8,527.869 1002.5,534.5C 1004.09,528.88 1005.59,523.213 1007,517.5C 1010.04,504.55 1005.04,496.883 992,494.5C 985.108,495.237 979.941,498.57 976.5,504.5C 975.069,502.811 974.236,500.811 974,498.5C 973.929,484.445 973.262,470.445 972,456.5C 970.558,452.489 968.558,448.822 966,445.5C 960.197,439.876 954.864,433.876 950,427.5C 941.627,420.731 932.127,416.231 921.5,414C 918.938,411.587 915.938,409.92 912.5,409C 907.704,408.09 903.037,406.757 898.5,405C 892.999,399.417 886.333,396.25 878.5,395.5C 878.833,394.167 879.167,392.833 879.5,391.5C 887.483,392.185 892.816,388.852 895.5,381.5C 899.746,375.742 900.579,369.409 898,362.5C 894.453,357.36 892.62,351.693 892.5,345.5C 892.5,344.833 892.5,344.167 892.5,343.5C 895.139,340.701 895.972,337.368 895,333.5C 891.768,326.599 888.101,319.933 884,313.5C 882.453,308.216 881.12,302.882 880,297.5C 874.207,291.186 867.041,287.352 858.5,286C 850.317,285.317 842.151,285.484 834,286.5C 826.661,285.831 819.494,284.331 812.5,282C 799.367,279.326 790.367,284.159 785.5,296.5C 783,299.494 781,302.827 779.5,306.5C 774.024,311.308 769.69,316.974 766.5,323.5C 762.221,331.687 761.388,340.353 764,349.5C 765.31,355.673 769.144,358.34 775.5,357.5C 771.481,383.649 780.481,403.816 802.5,418C 805.327,419.664 808.327,420.83 811.5,421.5C 810.726,422.147 809.726,422.48 808.5,422.5C 801.25,420.72 793.917,420.22 786.5,421C 777.786,424.339 769.12,427.673 760.5,431C 756.586,432.993 754.252,436.16 753.5,440.5C 749.132,448.943 746.132,457.943 744.5,467.5C 740.043,470.619 736.709,474.619 734.5,479.5C 732.868,482.558 731.701,485.891 731,489.5C 727.239,493.027 725.739,497.361 726.5,502.5C 723.677,503.992 722.01,506.326 721.5,509.5C 720.699,511.042 720.366,512.708 720.5,514.5C 716.002,516.335 713.336,519.668 712.5,524.5C 711.662,524.842 711.328,525.508 711.5,526.5C 707.797,530.202 704.463,534.202 701.5,538.5C 699.983,538.489 698.816,537.823 698,536.5C 691.183,528.382 684.016,520.549 676.5,513C 673.833,512.333 671.167,512.333 668.5,513C 663.61,515.954 659.277,519.621 655.5,524C 649.943,525.541 645.443,528.707 642,533.5C 639.42,538.084 636.087,542.084 632,545.5C 630.711,548.351 630.211,551.351 630.5,554.5C 630.351,557.607 630.851,560.607 632,563.5C 635.002,567.334 638.169,571 641.5,574.5C 630.483,581.358 621.983,590.692 616,602.5C 614.648,605.72 613.814,609.053 613.5,612.5C 612.29,620.29 613.956,627.29 618.5,633.5C 577.153,632.03 535.82,630.364 494.5,628.5C 498.523,611.221 502.356,593.888 506,576.5C 508.84,547.859 502.84,521.192 488,496.5C 474.148,474.3 457.648,454.133 438.5,436C 433.89,431.544 428.89,427.71 423.5,424.5C 427.619,365.657 424.619,307.324 414.5,249.5C 409.477,216.407 401.477,184.074 390.5,152.5C 384.484,133.783 377.484,115.45 369.5,97.5 Z"/></g>
<g><path style="opacity:1" fill="#e7ebf4" d="M 260.5,159.5 C 231.873,265.938 224.04,373.938 237,483.5C 241.665,522.491 248.165,561.157 256.5,599.5C 250.034,598.4 243.868,596.4 238,593.5C 237.642,586.569 235.808,580.235 232.5,574.5C 221.931,525.049 215.598,475.049 213.5,424.5C 213.32,409.165 212.987,393.831 212.5,378.5C 213.342,357.17 214.009,335.837 214.5,314.5C 214.5,314.167 214.5,313.833 214.5,313.5C 217.425,289.282 220.425,264.948 223.5,240.5C 227.832,210.849 234.498,181.849 243.5,153.5C 244.15,153.196 244.817,152.863 245.5,152.5C 250.375,155.104 255.375,157.438 260.5,159.5 Z"/></g>
<g><path style="opacity:1" fill="#e2e7f3" d="M 390.5,152.5 C 401.477,184.074 409.477,216.407 414.5,249.5C 413.98,258.235 414.98,266.735 417.5,275C 416.941,275.725 416.608,276.558 416.5,277.5C 422.757,324.892 424.423,372.225 421.5,419.5C 421.966,422.492 422.299,425.492 422.5,428.5C 419.229,476.4 412.229,523.733 401.5,570.5C 399.984,577.562 398.318,584.562 396.5,591.5C 351.107,608.144 304.773,611.144 257.5,600.5C 256.833,600.5 256.5,600.167 256.5,599.5C 248.165,561.157 241.665,522.491 237,483.5C 224.04,373.938 231.873,265.938 260.5,159.5C 260.833,159.5 261.167,159.5 261.5,159.5C 294.33,171.367 327.663,172.534 361.5,163C 371.24,159.588 380.907,156.088 390.5,152.5 Z"/></g>
<g><path style="opacity:0.835" fill="#b40134" d="M 155.5,217.5 C 155.167,218.167 154.833,218.833 154.5,219.5C 149.36,210.563 144.194,201.563 139,192.5C 136.588,188.084 133.422,184.251 129.5,181C 140.162,184.994 147.662,192.494 152,203.5C 153.797,208.023 154.964,212.69 155.5,217.5 Z"/></g>
<g><path style="opacity:0.799" fill="#b50034" d="M 159.5,239.5 C 159.714,232.732 159.047,226.065 157.5,219.5C 157.803,211.111 157.47,202.778 156.5,194.5C 157.359,193.226 158.026,193.392 158.5,195C 163.034,206.094 164.534,217.594 163,229.5C 162.698,233.245 161.531,236.578 159.5,239.5 Z"/></g>
<g><path style="opacity:1" fill="#afbfdf" d="M 306.5,221.5 C 350.124,218.995 377.624,238.662 389,280.5C 392.738,316.533 378.572,342.699 346.5,359C 307.407,371.971 276.907,361.138 255,326.5C 238.656,288.21 247.156,256.71 280.5,232C 288.769,227.196 297.436,223.696 306.5,221.5 Z"/></g>
<g><path style="opacity:0.858" fill="#b50034" d="M 157.5,233.5 C 158.494,235.334 158.494,237.001 157.5,238.5C 153.567,235.736 150.067,232.403 147,228.5C 148.726,240.395 151.226,252.062 154.5,263.5C 154.337,265.857 154.503,268.19 155,270.5C 156.107,264.799 157.273,259.132 158.5,253.5C 161.474,245.589 164.474,237.589 167.5,229.5C 169.59,244.216 166.757,257.882 159,270.5C 157.961,271.71 156.794,272.71 155.5,273.5C 154.833,273.167 154.167,272.833 153.5,272.5C 152.542,272.047 151.708,271.381 151,270.5C 150.699,273.507 150.865,276.507 151.5,279.5C 151.502,284.5 150.502,289.167 148.5,293.5C 146.526,291.572 145.026,289.239 144,286.5C 142,277.5 142,268.5 144,259.5C 145.018,260.706 145.518,260.373 145.5,258.5C 142.875,247.814 142.875,237.147 145.5,226.5C 140.076,218.229 136.409,209.229 134.5,199.5C 142.004,210.369 149.671,221.702 157.5,233.5 Z M 157.5,238.5 C 157.386,247.076 156.386,255.41 154.5,263.5C 151.226,252.062 148.726,240.395 147,228.5C 150.067,232.403 153.567,235.736 157.5,238.5 Z"/></g>
<g><path style="opacity:1" fill="#b60637" d="M 323.5,242.5 C 305.966,262.877 287.8,282.877 269,302.5C 268.51,303.793 268.343,305.127 268.5,306.5C 263.127,277.749 273.793,257.249 300.5,245C 307.997,242.801 315.663,241.968 323.5,242.5 Z"/></g>
<g><path style="opacity:1" fill="#fc292a" d="M 323.5,242.5 C 327.674,242.334 331.674,243 335.5,244.5C 335.291,245.922 334.791,247.255 334,248.5C 316.217,266.61 298.884,284.943 282,303.5C 280,306.167 278,308.833 276,311.5C 274.736,313.607 272.903,314.607 270.5,314.5C 269.629,311.888 268.963,309.221 268.5,306.5C 268.343,305.127 268.51,303.793 269,302.5C 287.8,282.877 305.966,262.877 323.5,242.5 Z"/></g>
<g><path style="opacity:1" fill="#b60135" d="M 335.5,244.5 C 367.672,260.509 376.839,285.175 363,318.5C 348.07,340.698 327.57,348.532 301.5,342C 294.137,339.661 287.803,335.828 282.5,330.5C 292.8,320.032 302.967,309.365 313,298.5C 313.368,294.15 313.868,289.817 314.5,285.5C 314.167,284.5 313.833,283.5 313.5,282.5C 307.154,289.346 300.654,296.012 294,302.5C 288.309,309.685 282.476,316.685 276.5,323.5C 274.533,320.523 272.533,317.523 270.5,314.5C 272.903,314.607 274.736,313.607 276,311.5C 278,308.833 280,306.167 282,303.5C 298.884,284.943 316.217,266.61 334,248.5C 334.791,247.255 335.291,245.922 335.5,244.5 Z"/></g>
<g><path style="opacity:0.712" fill="#3b2926" d="M 155.5,217.5 C 156.167,218.167 156.833,218.833 157.5,219.5C 159.047,226.065 159.714,232.732 159.5,239.5C 159.563,244.203 159.229,248.87 158.5,253.5C 157.273,259.132 156.107,264.799 155,270.5C 154.503,268.19 154.337,265.857 154.5,263.5C 156.386,255.41 157.386,247.076 157.5,238.5C 158.494,237.001 158.494,235.334 157.5,233.5C 157.734,228.543 156.734,223.877 154.5,219.5C 154.833,218.833 155.167,218.167 155.5,217.5 Z"/></g>
<g><path style="opacity:1" fill="#c2bec4" d="M 223.5,240.5 C 220.425,264.948 217.425,289.282 214.5,313.5C 215.793,288.821 218.793,264.488 223.5,240.5 Z"/></g>
<g><path style="opacity:0.724" fill="#b50033" d="M 198.5,278.5 C 197.508,278.328 196.842,278.662 196.5,279.5C 192.547,271.037 187.547,263.204 181.5,256C 186.052,257.51 189.886,260.343 193,264.5C 195.53,268.93 197.364,273.597 198.5,278.5 Z"/></g>
<g><path style="opacity:0.794" fill="#b50034" d="M 200.5,291.5 C 200.354,287.481 200.021,283.481 199.5,279.5C 198.852,274.172 198.685,268.838 199,263.5C 203.52,272.861 204.02,282.194 200.5,291.5 Z"/></g>
<g><path style="opacity:0.885" fill="#b50034" d="M 151.5,292.5 C 151.691,288.738 152.358,285.071 153.5,281.5C 154.167,281.5 154.5,281.167 154.5,280.5C 159.043,275.791 164.043,271.625 169.5,268C 171.167,267.333 172.833,267.333 174.5,268C 170.714,276.454 165.381,283.787 158.5,290C 156.35,291.411 154.016,292.245 151.5,292.5 Z"/></g>
<g><path style="opacity:0.777" fill="#b30133" d="M 198.5,286.5 C 199.494,288.334 199.494,290.001 198.5,291.5C 196.858,290.197 195.191,288.864 193.5,287.5C 194.231,293.748 195.565,299.748 197.5,305.5C 199.165,303.41 200.165,300.41 200.5,296.5C 202.072,292.974 203.572,289.307 205,285.5C 206.401,293.969 205.068,301.969 201,309.5C 199.961,310.71 198.794,311.71 197.5,312.5C 197.167,312.5 196.833,312.5 196.5,312.5C 195.794,311.443 195.461,311.776 195.5,313.5C 195.338,315.527 195.505,317.527 196,319.5C 196.513,318.473 197.013,317.473 197.5,316.5C 200.461,313.254 203.961,310.587 208,308.5C 208.5,308.833 209,309.167 209.5,309.5C 206.849,316.481 202.183,321.481 195.5,324.5C 195.657,323.127 195.49,321.793 195,320.5C 194.79,322.058 194.29,323.391 193.5,324.5C 192.21,323.942 191.377,322.942 191,321.5C 188.923,315.112 189.09,308.778 191.5,302.5C 190.209,296.48 190.209,290.48 191.5,284.5C 187.898,279.322 186.065,273.655 186,267.5C 189.693,274.241 193.86,280.574 198.5,286.5 Z M 193.5,287.5 C 195.191,288.864 196.858,290.197 198.5,291.5C 198.563,296.203 198.229,300.87 197.5,305.5C 195.565,299.748 194.231,293.748 193.5,287.5 Z"/></g>
<g><path style="opacity:0.189" fill="#7f2a43" d="M 892.5,343.5 C 891.819,335.133 888.652,327.8 883,321.5C 880.748,314.905 878.748,308.238 877,301.5C 872.437,297.94 867.604,294.773 862.5,292C 852.042,290.183 841.542,290.016 831,291.5C 821.846,289.753 812.68,288.086 803.5,286.5C 799.589,286.297 795.922,287.13 792.5,289C 789.933,291.396 787.6,293.896 785.5,296.5C 790.367,284.159 799.367,279.326 812.5,282C 819.494,284.331 826.661,285.831 834,286.5C 842.151,285.484 850.317,285.317 858.5,286C 867.041,287.352 874.207,291.186 880,297.5C 881.12,302.882 882.453,308.216 884,313.5C 888.101,319.933 891.768,326.599 895,333.5C 895.972,337.368 895.139,340.701 892.5,343.5 Z"/></g>
<g><path style="opacity:0.874" fill="#b50034" d="M 144.5,308.5 C 144.706,311.495 144.04,314.162 142.5,316.5C 139.035,313.594 136.535,309.927 135,305.5C 132.516,297.957 131.683,290.291 132.5,282.5C 135.133,283.301 136.967,284.967 138,287.5C 140.884,294.315 143.05,301.315 144.5,308.5 Z"/></g>
<g><path style="opacity:1" fill="#fc282a" d="M 282.5,330.5 C 280.529,328.192 278.529,325.858 276.5,323.5C 282.476,316.685 288.309,309.685 294,302.5C 300.654,296.012 307.154,289.346 313.5,282.5C 313.833,283.5 314.167,284.5 314.5,285.5C 313.868,289.817 313.368,294.15 313,298.5C 302.967,309.365 292.8,320.032 282.5,330.5 Z"/></g>
<g><path style="opacity:1" fill="#434073" d="M 892.5,343.5 C 892.5,344.167 892.5,344.833 892.5,345.5C 890.172,347.166 889.172,349.499 889.5,352.5C 891.349,357.878 893.515,363.211 896,368.5C 896.629,372.871 896.463,377.204 895.5,381.5C 892.816,388.852 887.483,392.185 879.5,391.5C 872.458,391.905 865.625,390.905 859,388.5C 855.948,389.213 853.782,391.046 852.5,394C 849.653,394.944 847.153,394.444 845,392.5C 844.667,388.833 844.333,385.167 844,381.5C 839.087,377.136 833.254,374.97 826.5,375C 823.34,374.009 820.84,372.176 819,369.5C 819.615,357.862 814.115,353.362 802.5,356C 798.957,357.608 795.957,359.942 793.5,363C 790.454,365.174 787.12,365.841 783.5,365C 782.217,360.88 779.551,358.38 775.5,357.5C 769.144,358.34 765.31,355.673 764,349.5C 761.388,340.353 762.221,331.687 766.5,323.5C 771.21,318.123 775.543,312.457 779.5,306.5C 781,302.827 783,299.494 785.5,296.5C 787.6,293.896 789.933,291.396 792.5,289C 795.922,287.13 799.589,286.297 803.5,286.5C 812.68,288.086 821.846,289.753 831,291.5C 841.542,290.016 852.042,290.183 862.5,292C 867.604,294.773 872.437,297.94 877,301.5C 878.748,308.238 880.748,314.905 883,321.5C 888.652,327.8 891.819,335.133 892.5,343.5 Z"/></g>
<g><path style="opacity:0.894" fill="#b50034" d="M 144.5,318.5 C 144.963,315.779 145.629,313.112 146.5,310.5C 147.167,310.5 147.5,310.167 147.5,309.5C 147.5,309.167 147.5,308.833 147.5,308.5C 152.346,302.49 158.013,297.323 164.5,293C 166.5,292.333 168.5,292.333 170.5,293C 165.256,305.078 156.589,313.578 144.5,318.5 Z"/></g>
<g><path style="opacity:0.409" fill="#3e2826" d="M 198.5,278.5 C 198.5,279.167 198.833,279.5 199.5,279.5C 200.021,283.481 200.354,287.481 200.5,291.5C 200.5,293.167 200.5,294.833 200.5,296.5C 200.165,300.41 199.165,303.41 197.5,305.5C 198.229,300.87 198.563,296.203 198.5,291.5C 199.494,290.001 199.494,288.334 198.5,286.5C 198.606,283.921 197.939,281.588 196.5,279.5C 196.842,278.662 197.508,278.328 198.5,278.5 Z"/></g>
<g><path style="opacity:1" fill="#d3ccd9" d="M 414.5,249.5 C 424.619,307.324 427.619,365.657 423.5,424.5C 423.768,426.099 423.434,427.432 422.5,428.5C 422.299,425.492 421.966,422.492 421.5,419.5C 424.423,372.225 422.757,324.892 416.5,277.5C 416.608,276.558 416.941,275.725 417.5,275C 414.98,266.735 413.98,258.235 414.5,249.5 Z"/></g>
<g><path style="opacity:0.911" fill="#b50034" d="M 138.5,329.5 C 138.568,333.57 137.568,337.237 135.5,340.5C 131.444,336.389 128.944,331.389 128,325.5C 127.5,318.842 127.334,312.175 127.5,305.5C 130.713,306.164 132.879,308.164 134,311.5C 136.131,317.356 137.631,323.356 138.5,329.5 Z"/></g>
<g><path style="opacity:0.188" fill="#832945" d="M 779.5,306.5 C 775.543,312.457 771.21,318.123 766.5,323.5C 769.69,316.974 774.024,311.308 779.5,306.5 Z"/></g>
<g><path style="opacity:0.647" fill="#3a2a27" d="M 196.5,312.5 C 196.833,312.5 197.167,312.5 197.5,312.5C 197.5,313.833 197.5,315.167 197.5,316.5C 197.013,317.473 196.513,318.473 196,319.5C 195.505,317.527 195.338,315.527 195.5,313.5C 196.167,313.5 196.5,313.167 196.5,312.5 Z"/></g>
<g><path style="opacity:0.816" fill="#b50033" d="M 191.5,332.5 C 191.405,334.786 190.738,336.786 189.5,338.5C 184.537,332.426 182.704,325.426 184,317.5C 188.124,321.747 190.624,326.747 191.5,332.5 Z"/></g>
<g><path style="opacity:0.9" fill="#b50035" d="M 138.5,341.5 C 137.957,341.44 137.624,341.107 137.5,340.5C 138.9,337.965 139.9,335.298 140.5,332.5C 141.167,332.5 141.5,332.167 141.5,331.5C 146.007,327.832 150.673,324.332 155.5,321C 158.608,319.241 161.941,318.408 165.5,318.5C 160.49,330.843 151.49,338.51 138.5,341.5 Z"/></g>
<g><path style="opacity:0.79" fill="#b40033" d="M 191.5,339.5 C 191.767,337.035 192.434,334.701 193.5,332.5C 196.297,330.205 198.964,327.705 201.5,325C 203.025,323.991 204.692,323.491 206.5,323.5C 204.272,331.396 199.272,336.729 191.5,339.5 Z"/></g>
<g><path style="opacity:0.913" fill="#b50034" d="M 131.5,354.5 C 131.277,358.162 130.277,361.495 128.5,364.5C 126.629,364.141 125.129,363.141 124,361.5C 116.539,351.924 112.373,341.257 111.5,329.5C 116.278,330.773 120.111,333.439 123,337.5C 126.407,342.98 129.24,348.647 131.5,354.5 Z"/></g>
<g><path style="opacity:0.826" fill="#b50034" d="M 187.5,345.5 C 187.706,348.495 187.04,351.162 185.5,353.5C 180.773,346.851 179.44,339.518 181.5,331.5C 185.6,335.194 187.6,339.861 187.5,345.5 Z"/></g>
<g><path style="opacity:0.836" fill="#b50034" d="M 187.5,353.5 C 188.167,351.167 188.833,348.833 189.5,346.5C 190.167,346.5 190.5,346.167 190.5,345.5C 206.159,336.438 207.825,338.271 195.5,351C 193.091,352.707 190.425,353.54 187.5,353.5 Z"/></g>
<g><path style="opacity:0.91" fill="#b50034" d="M 130.5,366.5 C 130.914,362.172 132.247,358.172 134.5,354.5C 140.724,348.11 148.224,344.11 157,342.5C 158.5,342.833 160,343.167 161.5,343.5C 155.402,352.728 147.402,359.894 137.5,365C 135.26,365.977 132.927,366.477 130.5,366.5 Z"/></g>
<g><path style="opacity:0.854" fill="#b50034" d="M 183.5,360.5 C 183.233,362.965 182.566,365.299 181.5,367.5C 179.245,366.352 177.412,364.686 176,362.5C 173.671,357.681 171.838,352.681 170.5,347.5C 172.187,346.432 173.854,346.599 175.5,348C 179.077,351.671 181.744,355.838 183.5,360.5 Z"/></g>
<g><path style="opacity:0.192" fill="#7f2b45" d="M 892.5,345.5 C 892.62,351.693 894.453,357.36 898,362.5C 900.579,369.409 899.746,375.742 895.5,381.5C 896.463,377.204 896.629,372.871 896,368.5C 893.515,363.211 891.349,357.878 889.5,352.5C 889.172,349.499 890.172,347.166 892.5,345.5 Z"/></g>
<g><path style="opacity:0.911" fill="#b50034" d="M 123.5,380.5 C 123.117,383.811 122.117,386.811 120.5,389.5C 110.567,379.287 105.234,366.954 104.5,352.5C 109.422,352.899 113.255,355.233 116,359.5C 119.429,366.295 121.929,373.295 123.5,380.5 Z"/></g>
<g><path style="opacity:0.873" fill="#b40034" d="M 182.5,369.5 C 183.304,366.421 184.304,363.421 185.5,360.5C 186.167,360.5 186.5,360.167 186.5,359.5C 190.681,355.58 195.681,353.58 201.5,353.5C 197.646,361.681 191.312,367.014 182.5,369.5 Z"/></g>
<g><path style="opacity:1" fill="#eb8d9c" d="M 879.5,391.5 C 879.167,392.833 878.833,394.167 878.5,395.5C 876.824,396.183 876.157,397.517 876.5,399.5C 873.178,420.023 871.178,440.69 870.5,461.5C 862.982,470.209 856.815,479.876 852,490.5C 851.667,495.833 851.333,501.167 851,506.5C 851.057,515.773 846.557,520.773 837.5,521.5C 836.873,515.855 836.373,510.189 836,504.5C 833.139,496.25 830.473,487.917 828,479.5C 827.667,474.5 827.333,469.5 827,464.5C 826.163,462.156 824.829,460.156 823,458.5C 822.667,453.167 822.333,447.833 822,442.5C 820.324,438.473 818.158,434.806 815.5,431.5C 814.37,429.685 813.704,427.685 813.5,425.5C 813.771,423.62 813.104,422.287 811.5,421.5C 808.327,420.83 805.327,419.664 802.5,418C 780.481,403.816 771.481,383.649 775.5,357.5C 779.551,358.38 782.217,360.88 783.5,365C 787.12,365.841 790.454,365.174 793.5,363C 795.957,359.942 798.957,357.608 802.5,356C 814.115,353.362 819.615,357.862 819,369.5C 820.84,372.176 823.34,374.009 826.5,375C 833.254,374.97 839.087,377.136 844,381.5C 844.333,385.167 844.667,388.833 845,392.5C 847.153,394.444 849.653,394.944 852.5,394C 853.782,391.046 855.948,389.213 859,388.5C 865.625,390.905 872.458,391.905 879.5,391.5 Z"/></g>
<g><path style="opacity:0.924" fill="#b50034" d="M 123.5,390.5 C 123.489,386.536 124.489,382.869 126.5,379.5C 127.167,379.5 127.5,379.167 127.5,378.5C 133.58,371.594 141.08,366.927 150,364.5C 151.92,364.938 153.754,365.605 155.5,366.5C 147.71,378.389 137.044,386.389 123.5,390.5 Z"/></g>
<g><path style="opacity:0.447" fill="#bab5ba" d="M 214.5,314.5 C 214.009,335.837 213.342,357.17 212.5,378.5C 212.987,393.831 213.32,409.165 213.5,424.5C 213.167,424.5 212.833,424.5 212.5,424.5C 210.76,387.632 211.427,350.966 214.5,314.5 Z"/></g>
<g><path style="opacity:0.849" fill="#b50034" d="M 178.5,375.5 C 178.343,376.873 178.51,378.207 179,379.5C 179.847,377.807 180.68,376.14 181.5,374.5C 184.634,372.095 187.968,369.928 191.5,368C 194.053,367.149 196.386,367.482 198.5,369C 193.331,376.017 186.664,380.85 178.5,383.5C 178.633,380.075 177.967,379.742 176.5,382.5C 170.321,376.142 167.154,368.476 167,359.5C 169.088,360.308 171.088,361.308 173,362.5C 175.349,366.741 177.182,371.075 178.5,375.5 Z"/></g>
<g><path style="opacity:0.58" fill="#3f2826" d="M 195.5,324.5 C 194.833,327.167 194.167,329.833 193.5,332.5C 192.434,334.701 191.767,337.035 191.5,339.5C 190.85,341.435 190.517,343.435 190.5,345.5C 189.833,345.5 189.5,345.833 189.5,346.5C 188.833,348.833 188.167,351.167 187.5,353.5C 186.85,355.435 186.517,357.435 186.5,359.5C 185.833,359.5 185.5,359.833 185.5,360.5C 184.304,363.421 183.304,366.421 182.5,369.5C 182.371,371.216 182.038,372.883 181.5,374.5C 180.68,376.14 179.847,377.807 179,379.5C 178.51,378.207 178.343,376.873 178.5,375.5C 179.5,372.833 180.5,370.167 181.5,367.5C 182.566,365.299 183.233,362.965 183.5,360.5C 184.167,358.167 184.833,355.833 185.5,353.5C 187.04,351.162 187.706,348.495 187.5,345.5C 188.612,343.401 189.279,341.067 189.5,338.5C 190.738,336.786 191.405,334.786 191.5,332.5C 192.167,329.833 192.833,327.167 193.5,324.5C 194.29,323.391 194.79,322.058 195,320.5C 195.49,321.793 195.657,323.127 195.5,324.5 Z"/></g>
<g><path style="opacity:0.85" fill="#b50034" d="M 175.5,387.5 C 175.198,390.373 174.531,393.039 173.5,395.5C 170.944,394.457 168.777,392.79 167,390.5C 164.271,385.81 162.437,380.81 161.5,375.5C 168.329,376.997 172.996,380.997 175.5,387.5 Z"/></g>
<g><path style="opacity:0.887" fill="#b50033" d="M 175.5,396.5 C 175.56,393.659 176.226,390.993 177.5,388.5C 180.004,386.856 182.671,385.356 185.5,384C 188.882,383.176 192.216,383.343 195.5,384.5C 190.933,392.113 184.266,396.113 175.5,396.5 Z"/></g>
<g><path style="opacity:0.099" fill="#b50035" d="M 118.5,398.5 C 108.023,439.498 107.856,480.498 118,521.5C 120.932,532.462 124.766,543.128 129.5,553.5C 129.5,558.833 129.5,564.167 129.5,569.5C 129.335,573.182 129.501,576.848 130,580.5C 131.254,583.976 131.921,587.642 132,591.5C 132.383,592.056 132.883,592.389 133.5,592.5C 135.768,598.906 137.435,605.573 138.5,612.5C 114.352,612.454 90.3522,610.62 66.5,607C 46.8532,602.686 34.3532,590.852 29,571.5C 24.6225,541.658 16.9558,512.658 6,484.5C 3.36516,475.138 1.1985,465.805 -0.5,456.5C -0.5,450.167 -0.5,443.833 -0.5,437.5C 4.78605,406.389 23.286,390.389 55,389.5C 72.0487,389.971 88.2154,393.971 103.5,401.5C 103.833,401.333 104.167,401.167 104.5,401C 100.52,394.058 97.5199,386.724 95.5,379C 102.31,378.99 107.81,381.823 112,387.5C 114.193,391.23 116.36,394.897 118.5,398.5 Z"/></g>
<g><path style="opacity:0.905" fill="#b40033" d="M 172.5,402.5 C 172.702,404.95 172.369,407.283 171.5,409.5C 163.682,410.261 157.682,407.095 153.5,400C 160.487,396.098 166.82,396.931 172.5,402.5 Z"/></g>
<g><path style="opacity:0.883" fill="#b50034" d="M 173.5,410.5 C 173.401,407.763 173.735,405.096 174.5,402.5C 180.703,397.543 187.036,397.376 193.5,402C 188.342,408.413 181.676,411.246 173.5,410.5 Z"/></g>
<g><path style="opacity:1" fill="#565286" d="M 876.5,399.5 C 885.029,400.431 892.195,404.098 898,410.5C 906.047,411.246 913.214,414.08 919.5,419C 927.561,420.802 935.227,423.802 942.5,428C 950.309,435.477 957.809,443.311 965,451.5C 966.944,455.723 968.611,460.056 970,464.5C 970.031,480.219 970.864,495.886 972.5,511.5C 972.462,515.61 971.796,519.61 970.5,523.5C 971.589,527.25 972.255,531.083 972.5,535C 970.837,551.275 971.17,567.442 973.5,583.5C 971.822,586.019 970.822,588.852 970.5,592C 972.145,596.433 973.479,600.933 974.5,605.5C 975.25,611.165 976.083,616.832 977,622.5C 978.363,624.684 979.863,626.684 981.5,628.5C 990.578,640.32 998.911,652.653 1006.5,665.5C 1006.83,666.5 1007.5,667.167 1008.5,667.5C 1014.4,676.948 1020.56,686.281 1027,695.5C 1027.17,699.822 1025.67,703.488 1022.5,706.5C 1021.41,707.857 1020.08,708.857 1018.5,709.5C 1012.82,709.334 1007.16,709.501 1001.5,710C 997.203,711.143 995.369,713.976 996,718.5C 994.293,720.037 992.793,721.704 991.5,723.5C 988.756,724.072 987.923,725.738 989,728.5C 992.121,731.78 994.621,735.447 996.5,739.5C 994.969,745.208 991.302,748.041 985.5,748C 982.557,743.176 980.391,738.009 979,732.5C 977.814,725.62 976.314,718.954 974.5,712.5C 974.657,711.127 974.49,709.793 974,708.5C 972.234,706.404 970.901,704.071 970,701.5C 969.556,695.155 969.723,688.822 970.5,682.5C 970.576,672.978 970.409,663.311 970,653.5C 967.157,639.961 959.99,629.461 948.5,622C 940.348,617.839 931.848,614.672 923,612.5C 908.612,618.852 893.779,624.019 878.5,628C 879.566,629.159 879.233,629.992 877.5,630.5C 877.209,629.351 876.376,628.684 875,628.5C 866.597,630.434 858.097,630.934 849.5,630C 838.219,628.26 826.885,626.927 815.5,626C 812.244,624.526 808.911,623.36 805.5,622.5C 805.5,625.167 805.5,627.833 805.5,630.5C 795.122,630.804 784.789,630.304 774.5,629C 774.043,628.586 773.709,628.086 773.5,627.5C 774.456,625.925 775.123,624.258 775.5,622.5C 776.666,620.834 776.666,619.167 775.5,617.5C 772.154,616.495 768.821,615.495 765.5,614.5C 763.819,612.992 761.819,611.992 759.5,611.5C 758.522,611.189 757.855,610.522 757.5,609.5C 758.374,607.253 758.708,604.92 758.5,602.5C 760.872,592.445 762.206,582.112 762.5,571.5C 753.998,570.947 746.998,567.447 741.5,561C 729.387,554.576 716.721,550.076 703.5,547.5C 703.938,547.565 704.272,547.399 704.5,547C 702.981,545.649 701.648,544.149 700.5,542.5C 702.934,540.079 704.934,537.412 706.5,534.5C 708.985,532.348 710.651,529.681 711.5,526.5C 711.328,525.508 711.662,524.842 712.5,524.5C 716.987,522.675 719.653,519.341 720.5,514.5C 720.366,512.708 720.699,511.042 721.5,509.5C 723.547,507.45 725.214,505.117 726.5,502.5C 725.739,497.361 727.239,493.027 731,489.5C 731.701,485.891 732.868,482.558 734.5,479.5C 738.203,475.798 741.537,471.798 744.5,467.5C 746.132,457.943 749.132,448.943 753.5,440.5C 755.033,438.645 756.7,436.812 758.5,435C 766.411,431.807 774.411,428.807 782.5,426C 792.923,425.741 803.256,425.575 813.5,425.5C 813.704,427.685 814.37,429.685 815.5,431.5C 817.657,436.136 819.323,440.969 820.5,446C 817.346,452.463 815.18,459.296 814,466.5C 813.721,477.858 813.055,489.192 812,500.5C 810.021,508.731 808.687,517.064 808,525.5C 807.383,541.843 807.55,558.176 808.5,574.5C 812.578,573.298 816.578,571.798 820.5,570C 830.33,569.052 839.997,569.885 849.5,572.5C 853.78,571.529 858.113,570.863 862.5,570.5C 860.524,544.731 861.357,519.064 865,493.5C 868.985,483.246 870.818,472.58 870.5,461.5C 871.178,440.69 873.178,420.023 876.5,399.5 Z"/></g>
<g><path style="opacity:0.656" fill="#3d2926" d="M 178.5,383.5 C 177.962,385.117 177.629,386.784 177.5,388.5C 176.226,390.993 175.56,393.659 175.5,396.5C 175.167,398.5 174.833,400.5 174.5,402.5C 173.735,405.096 173.401,407.763 173.5,410.5C 173.599,413.237 173.265,415.904 172.5,418.5C 172.5,420.833 172.5,423.167 172.5,425.5C 172.5,427.833 172.5,430.167 172.5,432.5C 173.183,441.283 174.516,449.95 176.5,458.5C 176.068,459.71 175.401,460.71 174.5,461.5C 172.459,451.889 171.126,442.223 170.5,432.5C 170.5,430.167 170.5,427.833 170.5,425.5C 170.5,423.167 170.5,420.833 170.5,418.5C 170.704,415.482 171.037,412.482 171.5,409.5C 172.369,407.283 172.702,404.95 172.5,402.5C 172.674,400.139 173.007,397.806 173.5,395.5C 174.531,393.039 175.198,390.373 175.5,387.5C 175.629,385.784 175.962,384.117 176.5,382.5C 177.967,379.742 178.633,380.075 178.5,383.5 Z"/></g>
<g><path style="opacity:0.896" fill="#b50034" d="M 170.5,418.5 C 170.5,420.833 170.5,423.167 170.5,425.5C 162.415,425.793 156.415,422.46 152.5,415.5C 153.09,414.201 154.09,413.368 155.5,413C 161.8,411.491 166.8,413.324 170.5,418.5 Z"/></g>
<g><path style="opacity:0.888" fill="#b50034" d="M 172.5,425.5 C 172.5,423.167 172.5,420.833 172.5,418.5C 176.912,413.946 182.246,412.446 188.5,414C 189.91,414.368 190.91,415.201 191.5,416.5C 186.855,422.988 180.522,425.988 172.5,425.5 Z"/></g>
<g><path style="opacity:0.199" fill="#7c2e45" d="M 878.5,395.5 C 886.333,396.25 892.999,399.417 898.5,405C 903.037,406.757 907.704,408.09 912.5,409C 915.938,409.92 918.938,411.587 921.5,414C 932.127,416.231 941.627,420.731 950,427.5C 954.864,433.876 960.197,439.876 966,445.5C 968.558,448.822 970.558,452.489 972,456.5C 973.262,470.445 973.929,484.445 974,498.5C 974.236,500.811 975.069,502.811 976.5,504.5C 975.676,507.764 975.342,511.098 975.5,514.5C 974.65,536.853 974.65,559.186 975.5,581.5C 974.833,582.167 974.167,582.833 973.5,583.5C 971.17,567.442 970.837,551.275 972.5,535C 972.255,531.083 971.589,527.25 970.5,523.5C 971.796,519.61 972.462,515.61 972.5,511.5C 970.864,495.886 970.031,480.219 970,464.5C 968.611,460.056 966.944,455.723 965,451.5C 957.809,443.311 950.309,435.477 942.5,428C 935.227,423.802 927.561,420.802 919.5,419C 913.214,414.08 906.047,411.246 898,410.5C 892.195,404.098 885.029,400.431 876.5,399.5C 876.157,397.517 876.824,396.183 878.5,395.5 Z"/></g>
<g><path style="opacity:0.199" fill="#7d2b44" d="M 811.5,421.5 C 813.104,422.287 813.771,423.62 813.5,425.5C 803.256,425.575 792.923,425.741 782.5,426C 774.411,428.807 766.411,431.807 758.5,435C 756.7,436.812 755.033,438.645 753.5,440.5C 754.252,436.16 756.586,432.993 760.5,431C 769.12,427.673 777.786,424.339 786.5,421C 793.917,420.22 801.25,420.72 808.5,422.5C 809.726,422.48 810.726,422.147 811.5,421.5 Z"/></g>
<g><path style="opacity:0.101" fill="#b40035" d="M 170.5,432.5 C 171.126,442.223 172.459,451.889 174.5,461.5C 151.598,486.305 136.931,515.305 130.5,548.5C 121.53,526.516 116.03,503.516 114,479.5C 113.324,462.149 113.658,444.816 115,427.5C 116.267,418.997 118.1,410.664 120.5,402.5C 126.923,395.425 134.923,391.425 144.5,390.5C 146.56,390.572 148.56,390.905 150.5,391.5C 151.521,392.002 151.688,392.668 151,393.5C 144.076,402.55 135.242,409.05 124.5,413C 126.001,414.252 127.668,415.252 129.5,416C 134.723,416.02 139.723,417.02 144.5,419C 147.73,420.724 148.064,422.724 145.5,425C 152.002,429.818 159.335,431.818 167.5,431C 168.527,431.513 169.527,432.013 170.5,432.5 Z"/></g>
<g><path style="opacity:1" fill="#bbc6de" d="M 210.5,433.5 C 191.305,451.527 174.472,471.527 160,493.5C 143.746,518.85 137.079,546.516 140,576.5C 148.188,610.951 155.521,645.618 162,680.5C 164.871,698.094 167.038,715.761 168.5,733.5C 165.833,733.5 163.167,733.5 160.5,733.5C 160.737,732.209 160.404,731.209 159.5,730.5C 154.659,690.787 147.659,651.454 138.5,612.5C 137.435,605.573 135.768,598.906 133.5,592.5C 132.913,584.581 131.58,576.914 129.5,569.5C 129.5,564.167 129.5,558.833 129.5,553.5C 130.451,552.081 130.784,550.415 130.5,548.5C 136.931,515.305 151.598,486.305 174.5,461.5C 175.401,460.71 176.068,459.71 176.5,458.5C 182.038,453.15 187.371,447.483 192.5,441.5C 195.895,438.098 199.562,435.098 203.5,432.5C 206.056,431.457 208.223,429.79 210,427.5C 210.495,429.473 210.662,431.473 210.5,433.5 Z"/></g>
<g><path style="opacity:0.887" fill="#b40135" d="M 192.5,441.5 C 187.371,447.483 182.038,453.15 176.5,458.5C 174.516,449.95 173.183,441.283 172.5,432.5C 179.133,427.176 185.8,427.176 192.5,432.5C 188.643,437.071 183.643,439.238 177.5,439C 182.435,440.267 187.435,441.1 192.5,441.5 Z"/></g>
<g><path style="opacity:1" fill="#aebddd" d="M 423.5,424.5 C 428.89,427.71 433.89,431.544 438.5,436C 457.648,454.133 474.148,474.3 488,496.5C 502.84,521.192 508.84,547.859 506,576.5C 502.356,593.888 498.523,611.221 494.5,628.5C 487.211,663.235 481.544,698.235 477.5,733.5C 472.167,733.5 466.833,733.5 461.5,733.5C 461.821,727.974 461.488,722.64 460.5,717.5C 459.184,686.636 454.517,656.303 446.5,626.5C 442.487,612.475 436.321,599.475 428,587.5C 423.801,582.966 419.301,578.799 414.5,575C 410.526,572.398 406.193,570.898 401.5,570.5C 412.229,523.733 419.229,476.4 422.5,428.5C 423.434,427.432 423.768,426.099 423.5,424.5 Z"/></g>
<g><path style="opacity:1" fill="#a3b0cc" d="M 212.5,424.5 C 212.833,424.5 213.167,424.5 213.5,424.5C 215.598,475.049 221.931,525.049 232.5,574.5C 231.596,573.791 231.263,572.791 231.5,571.5C 230.5,571.5 229.5,571.5 228.5,571.5C 224.559,548.186 220.725,524.852 217,501.5C 214.752,478.689 212.585,456.023 210.5,433.5C 210.662,431.473 210.495,429.473 210,427.5C 208.223,429.79 206.056,431.457 203.5,432.5C 205.88,429.119 208.88,426.453 212.5,424.5 Z"/></g>
<g><path style="opacity:0.992" fill="#3d2826" d="M 153.5,272.5 C 154.167,272.833 154.833,273.167 155.5,273.5C 154.781,275.764 154.448,278.097 154.5,280.5C 153.833,280.5 153.5,280.833 153.5,281.5C 152.358,285.071 151.691,288.738 151.5,292.5C 149.858,297.733 148.525,303.067 147.5,308.5C 147.5,308.833 147.5,309.167 147.5,309.5C 146.833,309.5 146.5,309.833 146.5,310.5C 145.629,313.112 144.963,315.779 144.5,318.5C 143.343,322.793 142.343,327.127 141.5,331.5C 140.833,331.5 140.5,331.833 140.5,332.5C 139.9,335.298 138.9,337.965 137.5,340.5C 137.624,341.107 137.957,341.44 138.5,341.5C 137.015,345.771 135.682,350.104 134.5,354.5C 132.247,358.172 130.914,362.172 130.5,366.5C 129.188,370.416 128.188,374.416 127.5,378.5C 126.833,378.5 126.5,378.833 126.5,379.5C 124.489,382.869 123.489,386.536 123.5,390.5C 122.192,394.4 121.192,398.4 120.5,402.5C 118.1,410.664 116.267,418.997 115,427.5C 113.658,444.816 113.324,462.149 114,479.5C 116.03,503.516 121.53,526.516 130.5,548.5C 130.784,550.415 130.451,552.081 129.5,553.5C 124.766,543.128 120.932,532.462 118,521.5C 107.856,480.498 108.023,439.498 118.5,398.5C 119.323,395.539 119.99,392.539 120.5,389.5C 122.117,386.811 123.117,383.811 123.5,380.5C 125.172,375.151 126.839,369.818 128.5,364.5C 130.277,361.495 131.277,358.162 131.5,354.5C 133.03,349.907 134.364,345.24 135.5,340.5C 137.568,337.237 138.568,333.57 138.5,329.5C 140.279,325.405 141.612,321.072 142.5,316.5C 144.04,314.162 144.706,311.495 144.5,308.5C 146.278,303.728 147.611,298.728 148.5,293.5C 150.502,289.167 151.502,284.5 151.5,279.5C 152.407,277.343 153.073,275.01 153.5,272.5 Z"/></g>
<g><path style="opacity:1" fill="#aebfdf" d="M 210.5,433.5 C 212.585,456.023 214.752,478.689 217,501.5C 220.725,524.852 224.559,548.186 228.5,571.5C 211.686,581.68 200.353,596.347 194.5,615.5C 189.269,629.422 185.436,643.755 183,658.5C 179.99,677.095 177.823,695.762 176.5,714.5C 175.51,720.645 175.177,726.978 175.5,733.5C 173.167,733.5 170.833,733.5 168.5,733.5C 167.038,715.761 164.871,698.094 162,680.5C 155.521,645.618 148.188,610.951 140,576.5C 137.079,546.516 143.746,518.85 160,493.5C 174.472,471.527 191.305,451.527 210.5,433.5 Z"/></g>
<g><path style="opacity:1" fill="#e0e5f1" d="M 815.5,431.5 C 818.158,434.806 820.324,438.473 822,442.5C 822.333,447.833 822.667,453.167 823,458.5C 824.829,460.156 826.163,462.156 827,464.5C 827.333,469.5 827.667,474.5 828,479.5C 830.473,487.917 833.139,496.25 836,504.5C 836.373,510.189 836.873,515.855 837.5,521.5C 846.557,520.773 851.057,515.773 851,506.5C 851.333,501.167 851.667,495.833 852,490.5C 856.815,479.876 862.982,470.209 870.5,461.5C 870.818,472.58 868.985,483.246 865,493.5C 861.357,519.064 860.524,544.731 862.5,570.5C 858.113,570.863 853.78,571.529 849.5,572.5C 839.997,569.885 830.33,569.052 820.5,570C 816.578,571.798 812.578,573.298 808.5,574.5C 807.55,558.176 807.383,541.843 808,525.5C 808.687,517.064 810.021,508.731 812,500.5C 813.055,489.192 813.721,477.858 814,466.5C 815.18,459.296 817.346,452.463 820.5,446C 819.323,440.969 817.657,436.136 815.5,431.5 Z"/></g>
<g><path style="opacity:0.999" fill="#890028" d="M 1049.5,490.5 C 1041.78,500.891 1032.44,509.558 1021.5,516.5C 1020.83,516.167 1020.17,515.833 1019.5,515.5C 1017.9,503.881 1017.4,492.214 1018,480.5C 1019.24,477.676 1020.74,475.009 1022.5,472.5C 1037.06,464.972 1046.39,469.139 1050.5,485C 1049.59,486.699 1049.26,488.533 1049.5,490.5 Z"/></g>
<g><path style="opacity:0.231" fill="#78334b" d="M 744.5,467.5 C 741.537,471.798 738.203,475.798 734.5,479.5C 736.709,474.619 740.043,470.619 744.5,467.5 Z"/></g>
<g><path style="opacity:0.099" fill="#b40034" d="M 1049.5,490.5 C 1061.18,502.182 1069.01,516.182 1073,532.5C 1088.18,534.348 1093.85,542.681 1090,557.5C 1085.97,563.561 1081.47,569.228 1076.5,574.5C 1073.56,576.934 1070.73,579.601 1068,582.5C 1067.59,582.043 1067.09,581.709 1066.5,581.5C 1045.91,595.092 1031.24,613.426 1022.5,636.5C 1010.19,634.729 998.188,631.729 986.5,627.5C 985.833,627.167 985.167,626.833 984.5,626.5C 984.267,624.938 983.6,623.605 982.5,622.5C 982.435,622.062 982.601,621.728 983,621.5C 991.76,626.296 1000.93,630.129 1010.5,633C 1015.41,634.185 1019.74,633.185 1023.5,630C 1015.66,622.504 1008.16,614.671 1001,606.5C 994.238,610.128 987.738,614.128 981.5,618.5C 979.999,597.336 983.332,577.003 991.5,557.5C 1003.05,559.902 1014.72,560.736 1026.5,560C 1035.84,556.31 1039.68,549.476 1038,539.5C 1033.93,529.91 1026.76,526.41 1016.5,529C 1011.71,531.955 1007.38,535.455 1003.5,539.5C 1008.71,531.279 1014.71,523.612 1021.5,516.5C 1032.44,509.558 1041.78,500.891 1049.5,490.5 Z"/></g>
<g><path style="opacity:0.999" fill="#890028" d="M 1002.5,534.5 C 1000.97,537.749 999.639,541.082 998.5,544.5C 997.833,544.167 997.167,543.833 996.5,543.5C 988.31,534.651 981.31,524.984 975.5,514.5C 975.342,511.098 975.676,507.764 976.5,504.5C 979.941,498.57 985.108,495.237 992,494.5C 1005.04,496.883 1010.04,504.55 1007,517.5C 1005.59,523.213 1004.09,528.88 1002.5,534.5 Z"/></g>
<g><path style="opacity:0.22" fill="#78324c" d="M 726.5,502.5 C 725.214,505.117 723.547,507.45 721.5,509.5C 722.01,506.326 723.677,503.992 726.5,502.5 Z"/></g>
<g><path style="opacity:0.207" fill="#7c2f46" d="M 701.5,538.5 C 700.998,540.085 699.998,540.585 698.5,540C 692.198,532.697 685.532,525.697 678.5,519C 673.532,515.768 668.532,515.768 663.5,519C 660.604,522.066 657.604,524.899 654.5,527.5C 647.358,529.305 642.358,533.638 639.5,540.5C 637.567,542.937 635.4,545.271 633,547.5C 632.302,550.004 631.469,552.337 630.5,554.5C 630.211,551.351 630.711,548.351 632,545.5C 636.087,542.084 639.42,538.084 642,533.5C 645.443,528.707 649.943,525.541 655.5,524C 659.277,519.621 663.61,515.954 668.5,513C 671.167,512.333 673.833,512.333 676.5,513C 684.016,520.549 691.183,528.382 698,536.5C 698.816,537.823 699.983,538.489 701.5,538.5 Z"/></g>
<g><path style="opacity:0.098" fill="#b30035" d="M 975.5,514.5 C 981.31,524.984 988.31,534.651 996.5,543.5C 986.643,559.07 980.977,576.07 979.5,594.5C 978.883,594.389 978.383,594.056 978,593.5C 976.846,589.553 976.013,585.553 975.5,581.5C 974.65,559.186 974.65,536.853 975.5,514.5 Z"/></g>
<g><path style="opacity:1" fill="#31364d" d="M 701.5,538.5 C 703.167,537.167 704.833,535.833 706.5,534.5C 704.934,537.412 702.934,540.079 700.5,542.5C 701.648,544.149 702.981,545.649 704.5,547C 704.272,547.399 703.938,547.565 703.5,547.5C 696.323,546.998 689.323,547.665 682.5,549.5C 678.568,544.877 673.568,543.377 667.5,545C 664.261,546.736 661.927,549.236 660.5,552.5C 656.333,561.082 658.333,567.915 666.5,573C 670.887,573.706 675.22,573.54 679.5,572.5C 683.575,578.911 688.908,583.911 695.5,587.5C 694.5,587.833 693.833,588.5 693.5,589.5C 689.335,593.497 685.002,597.33 680.5,601C 676.625,602.52 672.625,602.854 668.5,602C 664.701,599.203 661.201,596.036 658,592.5C 654.167,588 650.333,583.5 646.5,579C 645.906,578.536 645.239,578.369 644.5,578.5C 643.974,576.77 642.974,575.436 641.5,574.5C 638.169,571 635.002,567.334 632,563.5C 630.851,560.607 630.351,557.607 630.5,554.5C 631.469,552.337 632.302,550.004 633,547.5C 635.4,545.271 637.567,542.937 639.5,540.5C 639.435,540.938 639.601,541.272 640,541.5C 644.702,536.63 649.535,531.963 654.5,527.5C 657.604,524.899 660.604,522.066 663.5,519C 668.532,515.768 673.532,515.768 678.5,519C 685.532,525.697 692.198,532.697 698.5,540C 699.998,540.585 700.998,540.085 701.5,538.5 Z"/></g>
<g><path style="opacity:0.824" fill="#6b3e58" d="M 720.5,514.5 C 719.653,519.341 716.987,522.675 712.5,524.5C 713.336,519.668 716.002,516.335 720.5,514.5 Z"/></g>
<g><path style="opacity:0.989" fill="#452f32" d="M 1019.5,515.5 C 1020.17,515.833 1020.83,516.167 1021.5,516.5C 1014.71,523.612 1008.71,531.279 1003.5,539.5C 1001.61,540.973 999.939,542.64 998.5,544.5C 999.639,541.082 1000.97,537.749 1002.5,534.5C 1007.8,527.869 1013.46,521.535 1019.5,515.5 Z"/></g>
<g><path style="opacity:0.958" fill="#b50034" d="M 1140.5,538.5 C 1140.5,541.5 1140.5,544.5 1140.5,547.5C 1138.38,553.122 1134.38,556.955 1128.5,559C 1119.4,562.441 1110.07,564.941 1100.5,566.5C 1099.66,566.158 1099.33,565.492 1099.5,564.5C 1101.83,555.685 1104.66,547.018 1108,538.5C 1113.37,527.067 1121.87,523.901 1133.5,529C 1136.88,531.529 1139.22,534.696 1140.5,538.5 Z"/></g>
<g><path style="opacity:1" fill="#890028" d="M 991.5,557.5 C 993.559,553.05 995.892,548.717 998.5,544.5C 999.939,542.64 1001.61,540.973 1003.5,539.5C 1007.38,535.455 1011.71,531.955 1016.5,529C 1026.76,526.41 1033.93,529.91 1038,539.5C 1039.68,549.476 1035.84,556.31 1026.5,560C 1014.72,560.736 1003.05,559.902 991.5,557.5 Z"/></g>
<g><path style="opacity:0.22" fill="#7d3149" d="M 711.5,526.5 C 710.651,529.681 708.985,532.348 706.5,534.5C 704.833,535.833 703.167,537.167 701.5,538.5C 704.463,534.202 707.797,530.202 711.5,526.5 Z"/></g>
<g><path style="opacity:1" fill="#de8995" d="M 654.5,527.5 C 649.535,531.963 644.702,536.63 640,541.5C 639.601,541.272 639.435,540.938 639.5,540.5C 642.358,533.638 647.358,529.305 654.5,527.5 Z"/></g>
<g><path style="opacity:1" fill="#b30236" d="M 682.5,549.5 C 676.791,555.081 675.125,561.748 677.5,569.5C 670.63,573.231 665.13,571.564 661,564.5C 660.501,560.514 660.334,556.514 660.5,552.5C 661.927,549.236 664.261,546.736 667.5,545C 673.568,543.377 678.568,544.877 682.5,549.5 Z"/></g>
<g><path style="opacity:1" fill="#ec8d9d" d="M 703.5,547.5 C 716.721,550.076 729.387,554.576 741.5,561C 746.998,567.447 753.998,570.947 762.5,571.5C 762.206,582.112 760.872,592.445 758.5,602.5C 748.152,601.275 737.819,599.942 727.5,598.5C 716.541,595.625 705.874,591.958 695.5,587.5C 688.908,583.911 683.575,578.911 679.5,572.5C 679.573,570.973 678.906,569.973 677.5,569.5C 675.125,561.748 676.791,555.081 682.5,549.5C 689.323,547.665 696.323,546.998 703.5,547.5 Z"/></g>
<g><path style="opacity:0.098" fill="#b20236" d="M 780.5,563.5 C 780.5,565.167 780.5,566.833 780.5,568.5C 774.457,567.676 768.457,567.676 762.5,568.5C 761.702,568.043 761.369,567.376 761.5,566.5C 766.157,559.862 770.824,553.196 775.5,546.5C 776.801,552.39 778.468,558.056 780.5,563.5 Z"/></g>
<g><path style="opacity:1" fill="#760425" d="M 660.5,552.5 C 660.334,556.514 660.501,560.514 661,564.5C 665.13,571.564 670.63,573.231 677.5,569.5C 678.906,569.973 679.573,570.973 679.5,572.5C 675.22,573.54 670.887,573.706 666.5,573C 658.333,567.915 656.333,561.082 660.5,552.5 Z"/></g>
<g><path style="opacity:0.239" fill="#70384b" d="M 780.5,563.5 C 781.473,565.948 781.806,568.615 781.5,571.5C 774.173,571.056 766.84,570.723 759.5,570.5C 759.229,568.62 759.896,567.287 761.5,566.5C 761.369,567.376 761.702,568.043 762.5,568.5C 768.457,567.676 774.457,567.676 780.5,568.5C 780.5,566.833 780.5,565.167 780.5,563.5 Z"/></g>
<g><path style="opacity:0.098" fill="#b40035" d="M 401.5,570.5 C 406.193,570.898 410.526,572.398 414.5,575C 419.301,578.799 423.801,582.966 428,587.5C 436.321,599.475 442.487,612.475 446.5,626.5C 426.83,625.917 407.164,625.25 387.5,624.5C 390.964,613.647 393.964,602.647 396.5,591.5C 398.318,584.562 399.984,577.562 401.5,570.5 Z"/></g>
<g><path style="opacity:0.098" fill="#b40236" d="M 228.5,571.5 C 229.5,571.5 230.5,571.5 231.5,571.5C 231.263,572.791 231.596,573.791 232.5,574.5C 235.117,588.917 238.117,603.25 241.5,617.5C 225.829,616.924 210.162,616.257 194.5,615.5C 200.353,596.347 211.686,581.68 228.5,571.5 Z"/></g>
<g><path style="opacity:0.961" fill="#b50034" d="M 1026.5,635.5 C 1030.95,623.269 1037.45,612.269 1046,602.5C 1050.2,598.633 1054.03,594.467 1057.5,590C 1062.55,587.143 1067.55,584.309 1072.5,581.5C 1073.49,581.672 1074.16,581.338 1074.5,580.5C 1075.49,580.672 1076.16,580.338 1076.5,579.5C 1084.15,575.907 1091.81,575.741 1099.5,579C 1107.29,585.859 1108.46,593.692 1103,602.5C 1098.38,608.053 1092.55,609.886 1085.5,608C 1078.89,605.361 1072.55,602.194 1066.5,598.5C 1058.41,613.425 1047.07,625.259 1032.5,634C 1030.56,634.813 1028.56,635.313 1026.5,635.5 Z"/></g>
<g><path style="opacity:1" fill="#a81d4e" d="M 129.5,569.5 C 131.58,576.914 132.913,584.581 133.5,592.5C 132.883,592.389 132.383,592.056 132,591.5C 131.921,587.642 131.254,583.976 130,580.5C 129.501,576.848 129.335,573.182 129.5,569.5 Z"/></g>
<g><path style="opacity:1" fill="#424074" d="M 644.5,578.5 C 645.239,578.369 645.906,578.536 646.5,579C 650.333,583.5 654.167,588 658,592.5C 661.201,596.036 664.701,599.203 668.5,602C 672.625,602.854 676.625,602.52 680.5,601C 685.002,597.33 689.335,593.497 693.5,589.5C 694.404,590.209 694.737,591.209 694.5,592.5C 698.979,592.536 703.312,593.369 707.5,595C 719.5,599.667 731.5,604.333 743.5,609C 749.286,611.189 754.619,614.023 759.5,617.5C 764.696,619.565 770.03,621.232 775.5,622.5C 775.123,624.258 774.456,625.925 773.5,627.5C 773.709,628.086 774.043,628.586 774.5,629C 784.789,630.304 795.122,630.804 805.5,630.5C 818.414,632.859 831.581,633.859 845,633.5C 851.833,633.333 858.667,633.167 865.5,633C 869.681,632.814 873.681,631.981 877.5,630.5C 879.233,629.992 879.566,629.159 878.5,628C 893.779,624.019 908.612,618.852 923,612.5C 931.848,614.672 940.348,617.839 948.5,622C 959.99,629.461 967.157,639.961 970,653.5C 970.409,663.311 970.576,672.978 970.5,682.5C 968.27,693.443 962.603,702.276 953.5,709C 950.595,710.286 947.595,711.286 944.5,712C 926.053,710.323 908.719,713.823 892.5,722.5C 891.79,720.107 891.123,717.607 890.5,715C 887.633,714.199 884.966,714.366 882.5,715.5C 879.91,716.128 877.577,717.295 875.5,719C 864.007,720.785 852.507,722.285 841,723.5C 837.5,723.333 834,723.167 830.5,723C 825.136,720.318 819.802,717.651 814.5,715C 802.758,712.37 800.758,715.37 808.5,724C 787.63,724.859 778.964,735.692 782.5,756.5C 778.941,755.226 775.274,754.226 771.5,753.5C 771.058,752.261 770.391,751.261 769.5,750.5C 762.235,745.191 754.568,740.358 746.5,736C 726.242,717.706 703.576,703.206 678.5,692.5C 669.689,688.255 661.689,682.755 654.5,676C 641.651,662.412 629.651,648.245 618.5,633.5C 613.956,627.29 612.29,620.29 613.5,612.5C 615.783,607.256 618.116,601.923 620.5,596.5C 625.291,591.208 630.291,586.041 635.5,581C 638.521,580.151 641.521,579.317 644.5,578.5 Z"/></g>
<g><path style="opacity:0.237" fill="#6d3649" d="M 641.5,574.5 C 642.974,575.436 643.974,576.77 644.5,578.5C 641.521,579.317 638.521,580.151 635.5,581C 630.291,586.041 625.291,591.208 620.5,596.5C 618.116,601.923 615.783,607.256 613.5,612.5C 613.814,609.053 614.648,605.72 616,602.5C 621.983,590.692 630.483,581.358 641.5,574.5 Z"/></g>
<g><path style="opacity:1" fill="#810c2f" d="M 975.5,581.5 C 976.013,585.553 976.846,589.553 978,593.5C 978.383,594.056 978.883,594.389 979.5,594.5C 979.5,598.5 979.5,602.5 979.5,606.5C 977.784,606.371 976.117,606.038 974.5,605.5C 973.479,600.933 972.145,596.433 970.5,592C 970.822,588.852 971.822,586.019 973.5,583.5C 974.167,582.833 974.833,582.167 975.5,581.5 Z"/></g>
<g><path style="opacity:1" fill="#afc0df" d="M 396.5,591.5 C 393.964,602.647 390.964,613.647 387.5,624.5C 386.87,628.048 385.87,631.381 384.5,634.5C 382.46,637.038 379.794,638.871 376.5,640C 367.467,643.474 358.134,645.807 348.5,647C 321.503,648.977 294.837,647.144 268.5,641.5C 264.454,627.941 260.788,614.274 257.5,600.5C 304.773,611.144 351.107,608.144 396.5,591.5 Z"/></g>
<g><path style="opacity:1" fill="#becae2" d="M 232.5,574.5 C 235.808,580.235 237.642,586.569 238,593.5C 243.868,596.4 250.034,598.4 256.5,599.5C 256.5,600.167 256.833,600.5 257.5,600.5C 260.788,614.274 264.454,627.941 268.5,641.5C 262.366,640.092 256.199,638.759 250,637.5C 248.97,637.836 248.47,638.503 248.5,639.5C 245.857,632.261 243.524,624.928 241.5,617.5C 238.117,603.25 235.117,588.917 232.5,574.5 Z"/></g>
<g><path style="opacity:0.434" fill="#62547a" d="M 695.5,587.5 C 705.874,591.958 716.541,595.625 727.5,598.5C 733.296,601.224 739.296,603.724 745.5,606C 750.16,607.995 754.494,610.495 758.5,613.5C 759.298,613.043 759.631,612.376 759.5,611.5C 761.819,611.992 763.819,612.992 765.5,614.5C 762.985,614.769 760.985,615.769 759.5,617.5C 754.619,614.023 749.286,611.189 743.5,609C 731.5,604.333 719.5,599.667 707.5,595C 703.312,593.369 698.979,592.536 694.5,592.5C 694.737,591.209 694.404,590.209 693.5,589.5C 693.833,588.5 694.5,587.833 695.5,587.5 Z"/></g>
<g><path style="opacity:0.188" fill="#673b9c" d="M 727.5,598.5 C 737.819,599.942 748.152,601.275 758.5,602.5C 758.708,604.92 758.374,607.253 757.5,609.5C 757.855,610.522 758.522,611.189 759.5,611.5C 759.631,612.376 759.298,613.043 758.5,613.5C 754.494,610.495 750.16,607.995 745.5,606C 739.296,603.724 733.296,601.224 727.5,598.5 Z"/></g>
<g><path style="opacity:1" fill="#433033" d="M 1099.5,564.5 C 1099.33,565.492 1099.66,566.158 1100.5,566.5C 1092.21,570.31 1084.21,574.644 1076.5,579.5C 1075.51,579.328 1074.84,579.662 1074.5,580.5C 1073.51,580.328 1072.84,580.662 1072.5,581.5C 1067.55,584.309 1062.55,587.143 1057.5,590C 1054.03,594.467 1050.2,598.633 1046,602.5C 1037.45,612.269 1030.95,623.269 1026.5,635.5C 1025.11,638.007 1024.11,640.673 1023.5,643.5C 1021.9,644.287 1021.23,645.62 1021.5,647.5C 1018.2,653.144 1014.87,658.811 1011.5,664.5C 1010.17,665.167 1009.17,666.167 1008.5,667.5C 1007.5,667.167 1006.83,666.5 1006.5,665.5C 1007.89,664.101 1008.89,662.434 1009.5,660.5C 1014.85,653.142 1019.18,645.142 1022.5,636.5C 1031.24,613.426 1045.91,595.092 1066.5,581.5C 1067.09,581.709 1067.59,582.043 1068,582.5C 1070.73,579.601 1073.56,576.934 1076.5,574.5C 1084.05,570.892 1091.72,567.558 1099.5,564.5 Z"/></g>
<g><path style="opacity:0.999" fill="#8a0028" d="M 982.5,622.5 C 980.891,621.335 980.557,620.001 981.5,618.5C 987.738,614.128 994.238,610.128 1001,606.5C 1008.16,614.671 1015.66,622.504 1023.5,630C 1019.74,633.185 1015.41,634.185 1010.5,633C 1000.93,630.129 991.76,626.296 983,621.5C 982.601,621.728 982.435,622.062 982.5,622.5 Z"/></g>
<g><path style="opacity:0.439" fill="#444246" d="M 765.5,614.5 C 768.821,615.495 772.154,616.495 775.5,617.5C 776.666,619.167 776.666,620.834 775.5,622.5C 770.03,621.232 764.696,619.565 759.5,617.5C 760.985,615.769 762.985,614.769 765.5,614.5 Z"/></g>
<g><path style="opacity:0.394" fill="#513239" d="M 996.5,543.5 C 997.167,543.833 997.833,544.167 998.5,544.5C 995.892,548.717 993.559,553.05 991.5,557.5C 983.332,577.003 979.999,597.336 981.5,618.5C 980.557,620.001 980.891,621.335 982.5,622.5C 983.6,623.605 984.267,624.938 984.5,626.5C 983.504,626.586 982.671,626.252 982,625.5C 981.517,626.448 981.351,627.448 981.5,628.5C 979.863,626.684 978.363,624.684 977,622.5C 976.083,616.832 975.25,611.165 974.5,605.5C 976.117,606.038 977.784,606.371 979.5,606.5C 979.5,602.5 979.5,598.5 979.5,594.5C 980.977,576.07 986.643,559.07 996.5,543.5 Z"/></g>
<g><path style="opacity:1" fill="#c4c8d6" d="M 877.5,630.5 C 873.681,631.981 869.681,632.814 865.5,633C 858.667,633.167 851.833,633.333 845,633.5C 831.581,633.859 818.414,632.859 805.5,630.5C 805.5,627.833 805.5,625.167 805.5,622.5C 808.911,623.36 812.244,624.526 815.5,626C 826.885,626.927 838.219,628.26 849.5,630C 858.097,630.934 866.597,630.434 875,628.5C 876.376,628.684 877.209,629.351 877.5,630.5 Z"/></g>
<g><path style="opacity:1" fill="#e1e6f1" d="M 384.5,634.5 C 382.513,642.964 380.013,651.298 377,659.5C 369.369,666.233 360.536,670.733 350.5,673C 316.709,679.042 284.542,674.209 254,658.5C 251.651,652.289 249.818,645.956 248.5,639.5C 248.47,638.503 248.97,637.836 250,637.5C 256.199,638.759 262.366,640.092 268.5,641.5C 294.837,647.144 321.503,648.977 348.5,647C 358.134,645.807 367.467,643.474 376.5,640C 379.794,638.871 382.46,637.038 384.5,634.5 Z"/></g>
<g><path style="opacity:0.953" fill="#b50034" d="M 1021.5,647.5 C 1021.23,645.62 1021.9,644.287 1023.5,643.5C 1032.75,641.702 1042.09,640.369 1051.5,639.5C 1066.16,641.136 1071.66,649.136 1068,663.5C 1060.63,673.459 1051.79,674.959 1041.5,668C 1034.6,661.271 1027.94,654.438 1021.5,647.5 Z"/></g>
<g><path style="opacity:0.175" fill="#525051" d="M 984.5,626.5 C 985.167,626.833 985.833,627.167 986.5,627.5C 993.933,638.712 1001.6,649.712 1009.5,660.5C 1008.89,662.434 1007.89,664.101 1006.5,665.5C 998.911,652.653 990.578,640.32 981.5,628.5C 981.351,627.448 981.517,626.448 982,625.5C 982.671,626.252 983.504,626.586 984.5,626.5 Z"/></g>
<g><path style="opacity:0.198" fill="#525051" d="M 1011.5,664.5 C 1018.22,673.592 1024.72,682.926 1031,692.5C 1031.98,699.544 1029.15,704.211 1022.5,706.5C 1025.67,703.488 1027.17,699.822 1027,695.5C 1020.56,686.281 1014.4,676.948 1008.5,667.5C 1009.17,666.167 1010.17,665.167 1011.5,664.5 Z"/></g>
<g><path style="opacity:1" fill="#403d6e" d="M 970.5,682.5 C 969.723,688.822 969.556,695.155 970,701.5C 970.901,704.071 972.234,706.404 974,708.5C 974.49,709.793 974.657,711.127 974.5,712.5C 970.077,725.08 962.744,735.58 952.5,744C 945.747,748.14 938.413,750.473 930.5,751C 918.534,752.355 906.534,753.188 894.5,753.5C 893.137,743.362 892.47,733.029 892.5,722.5C 908.719,713.823 926.053,710.323 944.5,712C 947.595,711.286 950.595,710.286 953.5,709C 962.603,702.276 968.27,693.443 970.5,682.5 Z"/></g>
<g><path style="opacity:1" fill="#504c7a" d="M 678.5,692.5 C 703.576,703.206 726.242,717.706 746.5,736C 754.568,740.358 762.235,745.191 769.5,750.5C 768.5,750.5 767.5,750.5 766.5,750.5C 757.565,744.691 748.565,738.857 739.5,733C 722.932,718.282 704.599,706.115 684.5,696.5C 680.888,701.153 678.721,706.486 678,712.5C 677.333,723.5 677.333,734.5 678,745.5C 680.5,749.333 683,753.167 685.5,757C 687.473,757.495 689.473,757.662 691.5,757.5C 683.437,759.348 677.604,756.348 674,748.5C 672.644,737.215 672.144,725.881 672.5,714.5C 672.952,706.685 674.952,699.352 678.5,692.5 Z"/></g>
<g><path style="opacity:1" fill="#555286" d="M 766.5,750.5 C 751.986,753.383 737.319,754.216 722.5,753C 712.117,754.269 701.783,755.769 691.5,757.5C 689.473,757.662 687.473,757.495 685.5,757C 683,753.167 680.5,749.333 678,745.5C 677.333,734.5 677.333,723.5 678,712.5C 678.721,706.486 680.888,701.153 684.5,696.5C 704.599,706.115 722.932,718.282 739.5,733C 748.565,738.857 757.565,744.691 766.5,750.5 Z"/></g>
<g><path style="opacity:0.972" fill="#b30236" d="M 1018.5,709.5 C 1017.98,712.899 1017.15,716.232 1016,719.5C 1013.6,722.067 1011.1,724.4 1008.5,726.5C 1002.49,727.11 996.822,726.11 991.5,723.5C 992.793,721.704 994.293,720.037 996,718.5C 995.369,713.976 997.203,711.143 1001.5,710C 1007.16,709.501 1012.82,709.334 1018.5,709.5 Z"/></g>
<g><path style="opacity:1" fill="#30364d" d="M 974.5,712.5 C 976.314,718.954 977.814,725.62 979,732.5C 980.391,738.009 982.557,743.176 985.5,748C 991.302,748.041 994.969,745.208 996.5,739.5C 994.621,735.447 992.121,731.78 989,728.5C 987.923,725.738 988.756,724.072 991.5,723.5C 996.822,726.11 1002.49,727.11 1008.5,726.5C 1025.53,728.588 1041.53,733.755 1056.5,742C 1060.98,747.669 1060.31,752.669 1054.5,757C 1043.74,762.587 1032.4,766.587 1020.5,769C 988.445,775.382 956.112,779.715 923.5,782C 898.691,783.772 874.025,785.272 849.5,786.5C 809.5,786.5 769.5,786.5 729.5,786.5C 681.436,784.85 633.436,780.684 585.5,774C 564.218,771.597 543.885,765.931 524.5,757C 517.655,750.914 517.988,745.247 525.5,740C 536.954,734.404 548.954,730.404 561.5,728C 598.192,720.955 635.192,716.455 672.5,714.5C 672.144,725.881 672.644,737.215 674,748.5C 677.604,756.348 683.437,759.348 691.5,757.5C 701.783,755.769 712.117,754.269 722.5,753C 737.319,754.216 751.986,753.383 766.5,750.5C 767.5,750.5 768.5,750.5 769.5,750.5C 770.391,751.261 771.058,752.261 771.5,753.5C 775.274,754.226 778.941,755.226 782.5,756.5C 783.847,762.017 787.18,765.85 792.5,768C 814.057,770.17 835.723,771.504 857.5,772C 866.717,778.944 877.05,781.777 888.5,780.5C 890.5,780.5 892.5,780.5 894.5,780.5C 894.5,771.5 894.5,762.5 894.5,753.5C 906.534,753.188 918.534,752.355 930.5,751C 938.413,750.473 945.747,748.14 952.5,744C 962.744,735.58 970.077,725.08 974.5,712.5 Z"/></g>
<g><path style="opacity:1" fill="#4a4774" d="M 892.5,722.5 C 892.47,733.029 893.137,743.362 894.5,753.5C 894.5,762.5 894.5,771.5 894.5,780.5C 892.5,780.5 890.5,780.5 888.5,780.5C 882.374,771.916 877.54,762.583 874,752.5C 872.265,739.108 875.098,726.774 882.5,715.5C 884.966,714.366 887.633,714.199 890.5,715C 891.123,717.607 891.79,720.107 892.5,722.5 Z"/></g>
<g><path style="opacity:1" fill="#555285" d="M 882.5,715.5 C 875.098,726.774 872.265,739.108 874,752.5C 877.54,762.583 882.374,771.916 888.5,780.5C 877.05,781.777 866.717,778.944 857.5,772C 835.723,771.504 814.057,770.17 792.5,768C 787.18,765.85 783.847,762.017 782.5,756.5C 778.964,735.692 787.63,724.859 808.5,724C 800.758,715.37 802.758,712.37 814.5,715C 819.802,717.651 825.136,720.318 830.5,723C 834,723.167 837.5,723.333 841,723.5C 852.507,722.285 864.007,720.785 875.5,719C 877.577,717.295 879.91,716.128 882.5,715.5 Z"/></g>
<g><path style="opacity:0.386" fill="#9d8597" d="M 176.5,714.5 C 176.5,721.167 176.5,727.833 176.5,734.5C 170.833,734.5 165.167,734.5 159.5,734.5C 159.5,733.167 159.5,731.833 159.5,730.5C 160.404,731.209 160.737,732.209 160.5,733.5C 163.167,733.5 165.833,733.5 168.5,733.5C 170.833,733.5 173.167,733.5 175.5,733.5C 175.177,726.978 175.51,720.645 176.5,714.5 Z"/></g>
<g><path style="opacity:0.497" fill="#9c8497" d="M 460.5,717.5 C 461.488,722.64 461.821,727.974 461.5,733.5C 466.833,733.5 472.167,733.5 477.5,733.5C 472.025,734.489 466.358,734.822 460.5,734.5C 460.5,728.833 460.5,723.167 460.5,717.5 Z"/></g>
</svg>
