<?xml version="1.0" encoding="UTF-8"?>
<!DOCTYPE svg PUBLIC "-//W3C//DTD SVG 1.1//EN" "http://www.w3.org/Graphics/SVG/1.1/DTD/svg11.dtd">
<svg xmlns="http://www.w3.org/2000/svg" version="1.1" width="999px" height="797px" style="shape-rendering:geometricPrecision; text-rendering:geometricPrecision; image-rendering:optimizeQuality; fill-rule:evenodd; clip-rule:evenodd" xmlns:xlink="http://www.w3.org/1999/xlink">
<g><path style="opacity:0.098" fill="#b40035" d="M 403.5,-0.5 C 419.833,-0.5 436.167,-0.5 452.5,-0.5C 525.182,6.10992 594.516,25.2766 660.5,57C 738.278,94.8564 810.278,141.19 876.5,196C 946.244,258.476 964.744,333.642 932,421.5C 926.139,434.16 919.306,446.16 911.5,457.5C 866.167,457.5 820.833,457.5 775.5,457.5C 774.554,454.719 772.721,452.719 770,451.5C 769.125,450.127 768.625,448.627 768.5,447C 770.379,443.372 771.879,439.539 773,435.5C 774.646,424.923 771.146,416.59 762.5,410.5C 761.409,402.862 758.409,396.195 753.5,390.5C 753.797,386.089 752.631,382.089 750,378.5C 741.815,371.797 737.649,363.13 737.5,352.5C 739.275,341.673 741.775,331.006 745,320.5C 745.983,313.781 744.317,307.781 740,302.5C 732.773,294.498 724.606,287.831 715.5,282.5C 715.667,259.498 715.5,236.498 715,213.5C 713.014,204.182 707.514,198.015 698.5,195C 645.703,193.844 592.869,193.344 540,193.5C 488.833,193.667 437.667,193.833 386.5,194C 375.312,195.523 368.146,201.689 365,212.5C 364.333,290.833 364.333,369.167 365,447.5C 366.072,452.812 368.572,457.312 372.5,461C 350.33,461.168 328.33,461.668 306.5,462.5C 282.167,462.5 257.833,462.5 233.5,462.5C 221.162,462.667 208.829,462.5 196.5,462C 198.594,460.648 200.927,460.148 203.5,460.5C 203.5,446.833 203.5,433.167 203.5,419.5C 184.163,420.709 164.829,420.709 145.5,419.5C 144.5,419.5 143.5,419.5 142.5,419.5C 142.5,433.167 142.5,446.833 142.5,460.5C 143.5,460.5 144.5,460.5 145.5,460.5C 146.833,460.5 148.167,460.5 149.5,460.5C 149.5,461.5 149.5,462.5 149.5,463.5C 144.5,463.5 139.5,463.5 134.5,463.5C 109.041,446.214 86.5406,425.547 67,401.5C 49.9285,379.454 41.0951,354.454 40.5,326.5C 40.9532,283.389 60.6199,252.889 99.5,235C 124.996,226.459 150.996,219.793 177.5,215C 202.18,209.915 225.847,201.915 248.5,191C 265.372,182.134 279.872,170.301 292,155.5C 298.152,147.364 301.318,138.197 301.5,128C 300.164,117.816 298.664,107.65 297,97.5C 292.528,64.2854 304.361,38.7854 332.5,21C 354.633,8.45298 378.3,1.28631 403.5,-0.5 Z"/></g>
<g><path style="opacity:0.097" fill="#b40035" d="M 105.5,33.5 C 123.159,35.4782 129.992,45.1449 126,62.5C 118.164,74.121 107.997,76.621 95.5,70C 84.6372,58.6907 84.9705,47.6907 96.5,37C 99.5711,35.7043 102.571,34.5377 105.5,33.5 Z"/></g>
<g><path style="opacity:0.098" fill="#b40035" d="M 171.5,96.5 C 195.733,98.308 206.9,111.308 205,135.5C 199.076,154.385 186.242,162.552 166.5,160C 152.792,156.292 144.626,147.459 142,133.5C 141.328,112.682 151.162,100.348 171.5,96.5 Z"/></g>
<g><path style="opacity:0.097" fill="#b40035" d="M 921.5,101.5 C 935.243,101.994 939.743,108.661 935,121.5C 928.333,128.167 921.667,128.167 915,121.5C 910.488,112.536 912.655,105.869 921.5,101.5 Z"/></g>
<g><path style="opacity:1" fill="#484056" d="M 715.5,282.5 C 705.502,279.668 695.502,278.335 685.5,278.5C 685.833,278.5 686.167,278.5 686.5,278.5C 687.497,258.674 687.83,238.674 687.5,218.5C 589.167,218.5 490.833,218.5 392.5,218.5C 392.167,292.669 392.501,366.669 393.5,440.5C 450.833,440.5 508.167,440.5 565.5,440.5C 564.881,460.374 574.214,467.541 593.5,462C 597.558,461.66 601.558,460.993 605.5,460C 614.285,454.941 623.285,450.441 632.5,446.5C 630.512,450.629 629.012,454.962 628,459.5C 627.5,467.159 627.334,474.826 627.5,482.5C 626.596,481.791 626.263,480.791 626.5,479.5C 626.5,475.167 626.5,470.833 626.5,466.5C 545.833,466.667 465.166,466.5 384.5,466C 381.624,465.562 378.957,464.562 376.5,463C 353.169,462.5 329.836,462.333 306.5,462.5C 328.33,461.668 350.33,461.168 372.5,461C 368.572,457.312 366.072,452.812 365,447.5C 364.333,369.167 364.333,290.833 365,212.5C 368.146,201.689 375.312,195.523 386.5,194C 437.667,193.833 488.833,193.667 540,193.5C 592.869,193.344 645.703,193.844 698.5,195C 707.514,198.015 713.014,204.182 715,213.5C 715.5,236.498 715.667,259.498 715.5,282.5 Z"/></g>
<g><path style="opacity:1" fill="#8d8890" d="M 686.5,278.5 C 686.5,258.833 686.5,239.167 686.5,219.5C 588.833,219.5 491.167,219.5 393.5,219.5C 393.5,293.167 393.5,366.833 393.5,440.5C 392.501,366.669 392.167,292.669 392.5,218.5C 490.833,218.5 589.167,218.5 687.5,218.5C 687.83,238.674 687.497,258.674 686.5,278.5 Z"/></g>
<g><path style="opacity:1" fill="#ececf3" d="M 686.5,278.5 C 686.167,278.5 685.833,278.5 685.5,278.5C 679.87,277.708 674.203,277.375 668.5,277.5C 666.516,277.383 664.85,278.05 663.5,279.5C 661.329,289.176 655.662,296.009 646.5,300C 641.012,304.719 641.346,309.052 647.5,313C 649.134,313.494 650.801,313.66 652.5,313.5C 655.833,314.5 659.167,315.5 662.5,316.5C 661.504,316.414 660.671,316.748 660,317.5C 653.095,336.278 657.595,351.612 673.5,363.5C 674.664,370.142 674.831,376.808 674,383.5C 673.394,386.548 671.894,389.048 669.5,391C 665.456,391.856 661.789,393.522 658.5,396C 656.866,396.494 655.199,396.66 653.5,396.5C 651.219,396.077 649.552,396.744 648.5,398.5C 641.779,397.751 635.446,398.918 629.5,402C 621.53,408.969 613.864,416.302 606.5,424C 601.5,426.333 596.5,428.667 591.5,431C 590.5,431.667 589.5,431.667 588.5,431C 590.821,427.534 591.821,423.7 591.5,419.5C 590.974,413.651 590.307,407.818 589.5,402C 590.87,394.149 592.37,386.315 594,378.5C 594.851,373.03 594.351,367.697 592.5,362.5C 592.863,361.817 593.196,361.15 593.5,360.5C 605.666,334.832 601.333,312.332 580.5,293C 557.577,277.396 534.91,277.729 512.5,294C 494.957,311.034 490.124,331.2 498,354.5C 509.264,377.553 527.764,388.386 553.5,387C 560.559,385.925 567.226,383.758 573.5,380.5C 571.114,400.537 568.447,420.537 565.5,440.5C 508.167,440.5 450.833,440.5 393.5,440.5C 393.5,366.833 393.5,293.167 393.5,219.5C 491.167,219.5 588.833,219.5 686.5,219.5C 686.5,239.167 686.5,258.833 686.5,278.5 Z"/></g>
<g><path style="opacity:1" fill="#403a4d" d="M 668.5,277.5 C 674.203,277.375 679.87,277.708 685.5,278.5C 695.502,278.335 705.502,279.668 715.5,282.5C 724.606,287.831 732.773,294.498 740,302.5C 744.317,307.781 745.983,313.781 745,320.5C 741.775,331.006 739.275,341.673 737.5,352.5C 737.649,363.13 741.815,371.797 750,378.5C 752.631,382.089 753.797,386.089 753.5,390.5C 752.048,398.945 755.048,405.612 762.5,410.5C 771.146,416.59 774.646,424.923 773,435.5C 771.879,439.539 770.379,443.372 768.5,447C 768.625,448.627 769.125,450.127 770,451.5C 772.721,452.719 774.554,454.719 775.5,457.5C 776.412,463.752 773.746,467.252 767.5,468C 768.727,469.587 768.394,470.921 766.5,472C 764.527,472.495 762.527,472.662 760.5,472.5C 757.254,471.946 754.254,470.946 751.5,469.5C 746.732,465.909 742.065,462.075 737.5,458C 736.255,457.209 734.922,456.709 733.5,456.5C 723.638,455.321 713.971,453.654 704.5,451.5C 702.978,449.28 701.978,446.78 701.5,444C 702.888,434.815 702.722,425.648 701,416.5C 699.941,411.941 697.108,409.274 692.5,408.5C 687.567,407.74 682.901,406.407 678.5,404.5C 679.376,404.631 680.043,404.298 680.5,403.5C 679.049,400.164 678.383,396.664 678.5,393C 679.623,384.336 679.623,375.836 678.5,367.5C 678.657,366.127 678.49,364.793 678,363.5C 675.721,358.896 673.054,354.563 670,350.5C 669.77,344.762 670.937,339.262 673.5,334C 673.692,325.7 670.025,319.867 662.5,316.5C 659.167,315.5 655.833,314.5 652.5,313.5C 647.891,311.275 646.391,307.609 648,302.5C 653.04,298.157 658.04,293.823 663,289.5C 664.539,285.302 666.372,281.302 668.5,277.5 Z"/></g>
<g><path style="opacity:1" fill="#b50837" d="M 593.5,360.5 C 590.956,357.789 588.623,354.789 586.5,351.5C 594.573,328.608 588.573,310.441 568.5,297C 546.482,286.712 527.649,290.879 512,309.5C 498.335,334.671 503.168,355.505 526.5,372C 539.784,379.104 553.117,379.271 566.5,372.5C 568.505,374.334 570.672,376.001 573,377.5C 573.483,378.448 573.649,379.448 573.5,380.5C 567.226,383.758 560.559,385.925 553.5,387C 527.764,388.386 509.264,377.553 498,354.5C 490.124,331.2 494.957,311.034 512.5,294C 534.91,277.729 557.577,277.396 580.5,293C 601.333,312.332 605.666,334.832 593.5,360.5 Z"/></g>
<g><path style="opacity:1" fill="#e9e8f1" d="M 586.5,351.5 C 581.939,347.961 577.439,344.295 573,340.5C 572.333,341.833 572.333,343.167 573,344.5C 575.072,347.971 576.572,351.638 577.5,355.5C 570.122,355.438 564.789,358.605 561.5,365C 562.589,367.916 564.256,370.416 566.5,372.5C 553.117,379.271 539.784,379.104 526.5,372C 503.168,355.505 498.335,334.671 512,309.5C 527.649,290.879 546.482,286.712 568.5,297C 588.573,310.441 594.573,328.608 586.5,351.5 Z"/></g>
<g><path style="opacity:1" fill="#39302b" d="M 668.5,277.5 C 666.372,281.302 664.539,285.302 663,289.5C 658.04,293.823 653.04,298.157 648,302.5C 646.391,307.609 647.891,311.275 652.5,313.5C 650.801,313.66 649.134,313.494 647.5,313C 641.346,309.052 641.012,304.719 646.5,300C 655.662,296.009 661.329,289.176 663.5,279.5C 664.85,278.05 666.516,277.383 668.5,277.5 Z"/></g>
<g><path style="opacity:1" fill="#b50437" d="M 529.5,307.5 C 531.989,307.298 534.323,307.798 536.5,309C 548.5,316.333 560.5,323.667 572.5,331C 575.129,334.199 574.796,337.199 571.5,340C 558.353,347.321 545.186,354.488 532,361.5C 529.849,361.357 528.182,360.357 527,358.5C 526.333,342.5 526.333,326.5 527,310.5C 527.698,309.309 528.531,308.309 529.5,307.5 Z"/></g>
<g><path style="opacity:1" fill="#f6bfc7" d="M 662.5,316.5 C 670.025,319.867 673.692,325.7 673.5,334C 670.937,339.262 669.77,344.762 670,350.5C 673.054,354.563 675.721,358.896 678,363.5C 678.49,364.793 678.657,366.127 678.5,367.5C 677.654,379.207 677.654,390.874 678.5,402.5C 676.955,403.452 675.288,403.785 673.5,403.5C 666.335,402.335 659.669,400.002 653.5,396.5C 655.199,396.66 656.866,396.494 658.5,396C 661.789,393.522 665.456,391.856 669.5,391C 671.894,389.048 673.394,386.548 674,383.5C 674.831,376.808 674.664,370.142 673.5,363.5C 657.595,351.612 653.095,336.278 660,317.5C 660.671,316.748 661.504,316.414 662.5,316.5 Z"/></g>
<g><path style="opacity:1" fill="#dfe1e5" d="M 378.5,325.5 C 385.716,324.688 387.716,327.355 384.5,333.5C 377.793,334.772 375.793,332.105 378.5,325.5 Z"/></g>
<g><path style="opacity:1" fill="#fbc1cb" d="M 586.5,351.5 C 588.623,354.789 590.956,357.789 593.5,360.5C 593.196,361.15 592.863,361.817 592.5,362.5C 594.351,367.697 594.851,373.03 594,378.5C 592.37,386.315 590.87,394.149 589.5,402C 590.307,407.818 590.974,413.651 591.5,419.5C 591.821,423.7 590.821,427.534 588.5,431C 589.5,431.667 590.5,431.667 591.5,431C 596.5,428.667 601.5,426.333 606.5,424C 613.864,416.302 621.53,408.969 629.5,402C 635.446,398.918 641.779,397.751 648.5,398.5C 651.173,414.058 652.34,429.725 652,445.5C 650.309,452.256 646.309,456.923 640,459.5C 636.966,455.427 634.466,451.094 632.5,446.5C 623.285,450.441 614.285,454.941 605.5,460C 601.558,460.993 597.558,461.66 593.5,462C 574.214,467.541 564.881,460.374 565.5,440.5C 568.447,420.537 571.114,400.537 573.5,380.5C 573.649,379.448 573.483,378.448 573,377.5C 570.672,376.001 568.505,374.334 566.5,372.5C 564.256,370.416 562.589,367.916 561.5,365C 564.789,358.605 570.122,355.438 577.5,355.5C 576.572,351.638 575.072,347.971 573,344.5C 572.333,343.167 572.333,341.833 573,340.5C 577.439,344.295 581.939,347.961 586.5,351.5 Z"/></g>
<g><path style="opacity:1" fill="#e3b5bb" d="M 753.5,390.5 C 758.409,396.195 761.409,402.862 762.5,410.5C 755.048,405.612 752.048,398.945 753.5,390.5 Z"/></g>
<g><path style="opacity:1" fill="#92947d" d="M 678.5,367.5 C 679.623,375.836 679.623,384.336 678.5,393C 678.383,396.664 679.049,400.164 680.5,403.5C 680.043,404.298 679.376,404.631 678.5,404.5C 676.585,404.784 674.919,404.451 673.5,403.5C 675.288,403.785 676.955,403.452 678.5,402.5C 677.654,390.874 677.654,379.207 678.5,367.5 Z"/></g>
<g><path style="opacity:1" fill="#2f241f" d="M 692.5,408.5 C 697.108,409.274 699.941,411.941 701,416.5C 702.722,425.648 702.888,434.815 701.5,444C 701.978,446.78 702.978,449.28 704.5,451.5C 702.321,451.16 700.488,450.16 699,448.5C 698.667,438.167 698.333,427.833 698,417.5C 697.163,413.843 695.33,410.843 692.5,408.5 Z"/></g>
<g><path style="opacity:1" fill="#362622" d="M 145.5,419.5 C 145.5,433.167 145.5,446.833 145.5,460.5C 144.5,460.5 143.5,460.5 142.5,460.5C 142.5,446.833 142.5,433.167 142.5,419.5C 143.5,419.5 144.5,419.5 145.5,419.5 Z"/></g>
<g><path style="opacity:1" fill="#474056" d="M 145.5,419.5 C 164.829,420.709 184.163,420.709 203.5,419.5C 203.5,433.167 203.5,446.833 203.5,460.5C 200.927,460.148 198.594,460.648 196.5,462C 208.829,462.5 221.162,462.667 233.5,462.5C 221.345,463.495 209.011,463.829 196.5,463.5C 196.5,465.5 196.5,467.5 196.5,469.5C 180.833,469.5 165.167,469.5 149.5,469.5C 149.5,467.5 149.5,465.5 149.5,463.5C 149.5,462.5 149.5,461.5 149.5,460.5C 148.167,460.5 146.833,460.5 145.5,460.5C 145.5,446.833 145.5,433.167 145.5,419.5 Z"/></g>
<g><path style="opacity:1" fill="#37231f" d="M 733.5,456.5 C 734.922,456.709 736.255,457.209 737.5,458C 742.065,462.075 746.732,465.909 751.5,469.5C 751.167,469.5 750.833,469.5 750.5,469.5C 743.955,466.285 738.289,461.952 733.5,456.5 Z"/></g>
<g><path style="opacity:1" fill="#5f5b7d" d="M 775.5,457.5 C 820.833,457.5 866.167,457.5 911.5,457.5C 940.029,463.47 968.362,469.803 996.5,476.5C 917.669,477.636 838.669,478.302 759.5,478.5C 759.325,476.379 759.659,474.379 760.5,472.5C 762.527,472.662 764.527,472.495 766.5,472C 768.394,470.921 768.727,469.587 767.5,468C 773.746,467.252 776.412,463.752 775.5,457.5 Z"/></g>
<g><path style="opacity:1" fill="#5e5c7d" d="M 233.5,462.5 C 257.833,462.5 282.167,462.5 306.5,462.5C 329.836,462.333 353.169,462.5 376.5,463C 378.957,464.562 381.624,465.562 384.5,466C 465.166,466.5 545.833,466.667 626.5,466.5C 626.5,470.833 626.5,475.167 626.5,479.5C 448.833,480.392 271.166,481.392 93.5,482.5C 64.3314,482.5 35.3314,482.167 6.5,481.5C 34.3307,475.499 62.3307,469.666 90.5,464C 105.163,463.5 119.83,463.333 134.5,463.5C 139.5,463.5 144.5,463.5 149.5,463.5C 149.5,465.5 149.5,467.5 149.5,469.5C 165.167,469.5 180.833,469.5 196.5,469.5C 196.5,467.5 196.5,465.5 196.5,463.5C 209.011,463.829 221.345,463.495 233.5,462.5 Z"/></g>
<g><path style="opacity:1" fill="#f4bcc7" d="M 750.5,469.5 C 750.833,469.5 751.167,469.5 751.5,469.5C 754.254,470.946 757.254,471.946 760.5,472.5C 759.659,474.379 759.325,476.379 759.5,478.5C 759.276,482.179 758.942,485.846 758.5,489.5C 754.5,489.833 750.5,490.167 746.5,490.5C 747.834,483.499 749.167,476.499 750.5,469.5 Z"/></g>
<g><path style="opacity:1" fill="#474056" d="M 803.5,498.5 C 803.795,500.735 803.461,502.735 802.5,504.5C 797.332,498.72 790.832,496.386 783,497.5C 763.559,497.956 744.392,500.456 725.5,505C 713.01,510.081 700.676,515.415 688.5,521C 684.39,523.809 680.557,526.975 677,530.5C 674.296,535.018 671.129,539.018 667.5,542.5C 670.822,530.701 677.489,521.201 687.5,514C 698.414,509.209 709.081,503.876 719.5,498C 728.494,495.005 737.494,492.505 746.5,490.5C 750.5,490.167 754.5,489.833 758.5,489.5C 769.463,488.07 780.463,487.57 791.5,488C 796.932,489.936 800.932,493.436 803.5,498.5 Z"/></g>
<g><path style="opacity:1" fill="#403b4d" d="M 802.5,504.5 C 802.5,505.167 802.5,505.833 802.5,506.5C 800.359,514.063 798.693,521.73 797.5,529.5C 796.551,533.657 795.884,537.99 795.5,542.5C 794.834,559.004 791.167,574.838 784.5,590C 791.862,602.152 791.028,613.652 782,624.5C 774.076,633.274 764.909,640.274 754.5,645.5C 754.5,635.5 754.5,625.5 754.5,615.5C 756.564,615.238 757.897,614.071 758.5,612C 757.552,611.517 756.552,611.351 755.5,611.5C 749.833,611.5 744.167,611.5 738.5,611.5C 738.5,612.5 738.5,613.5 738.5,614.5C 730.05,614.172 721.717,613.006 713.5,611C 695.494,602.578 680.994,590.078 670,573.5C 665.163,563.446 664.329,553.113 667.5,542.5C 671.129,539.018 674.296,535.018 677,530.5C 680.557,526.975 684.39,523.809 688.5,521C 700.676,515.415 713.01,510.081 725.5,505C 744.392,500.456 763.559,497.956 783,497.5C 790.832,496.386 797.332,498.72 802.5,504.5 Z"/></g>
<g><path style="opacity:1" fill="#5e5c7d" d="M 976.5,726.5 C 949.596,707.887 923.262,688.554 897.5,668.5C 897.333,612.166 897.5,555.832 898,499.5C 924.759,498.505 951.592,498.172 978.5,498.5C 979.164,574.841 978.497,650.841 976.5,726.5 Z"/></g>
<g><path style="opacity:1" fill="#565371" d="M 996.5,476.5 C 997.167,476.5 997.833,476.5 998.5,476.5C 998.5,560.167 998.5,643.833 998.5,727.5C 990.981,727.825 983.648,727.492 976.5,726.5C 978.497,650.841 979.164,574.841 978.5,498.5C 951.592,498.172 924.759,498.505 898,499.5C 897.5,555.832 897.333,612.166 897.5,668.5C 896.501,611.669 896.168,554.669 896.5,497.5C 887.749,497.197 879.082,497.53 870.5,498.5C 848.167,498.5 825.833,498.5 803.5,498.5C 800.932,493.436 796.932,489.936 791.5,488C 780.463,487.57 769.463,488.07 758.5,489.5C 758.942,485.846 759.276,482.179 759.5,478.5C 838.669,478.302 917.669,477.636 996.5,476.5 Z"/></g>
<g><path style="opacity:0.098" fill="#b30136" d="M 803.5,498.5 C 825.833,498.5 848.167,498.5 870.5,498.5C 847.317,515.937 822.317,530.604 795.5,542.5C 795.884,537.99 796.551,533.657 797.5,529.5C 799.312,523.607 801.146,517.607 803,511.5C 803.78,509.613 803.613,507.946 802.5,506.5C 802.5,505.833 802.5,505.167 802.5,504.5C 803.461,502.735 803.795,500.735 803.5,498.5 Z"/></g>
<g><path style="opacity:0.098" fill="#b40034" d="M 653.5,396.5 C 659.669,400.002 666.335,402.335 673.5,403.5C 674.919,404.451 676.585,404.784 678.5,404.5C 682.901,406.407 687.567,407.74 692.5,408.5C 695.33,410.843 697.163,413.843 698,417.5C 698.333,427.833 698.667,438.167 699,448.5C 700.488,450.16 702.321,451.16 704.5,451.5C 713.971,453.654 723.638,455.321 733.5,456.5C 738.289,461.952 743.955,466.285 750.5,469.5C 749.167,476.499 747.834,483.499 746.5,490.5C 737.494,492.505 728.494,495.005 719.5,498C 709.081,503.876 698.414,509.209 687.5,514C 677.489,521.201 670.822,530.701 667.5,542.5C 664.329,553.113 665.163,563.446 670,573.5C 680.994,590.078 695.494,602.578 713.5,611C 721.717,613.006 730.05,614.172 738.5,614.5C 739.775,617.396 739.775,620.396 738.5,623.5C 720.587,630.125 702.253,631.292 683.5,627C 679.208,625.604 675.708,623.104 673,619.5C 670.393,614.62 668.06,609.62 666,604.5C 662.875,590.905 660.209,577.238 658,563.5C 650.89,548.391 639.39,538.225 623.5,533C 609.913,527.948 595.913,525.615 581.5,526C 576.986,528.016 573.653,531.183 571.5,535.5C 569.19,538.102 567.357,541.102 566,544.5C 563.192,553.614 559.692,562.447 555.5,571C 552.295,578.859 550.962,587.026 551.5,595.5C 459.212,588.543 369.546,569.376 282.5,538C 259.025,529.232 236.025,519.399 213.5,508.5C 213.5,507.167 213.5,505.833 213.5,504.5C 353.503,503.326 493.503,501.826 633.5,500C 629.614,494.843 627.614,489.01 627.5,482.5C 627.334,474.826 627.5,467.159 628,459.5C 629.012,454.962 630.512,450.629 632.5,446.5C 634.466,451.094 636.966,455.427 640,459.5C 646.309,456.923 650.309,452.256 652,445.5C 652.34,429.725 651.173,414.058 648.5,398.5C 649.552,396.744 651.219,396.077 653.5,396.5 Z"/></g>
<g><path style="opacity:1" fill="#5e5c7d" d="M 212.5,545.5 C 212.484,587.187 211.651,628.853 210,670.5C 202.391,688.707 194.557,706.707 186.5,724.5C 185.834,718.676 185.5,712.676 185.5,706.5C 187.4,639.828 189.4,573.161 191.5,506.5C 198.5,506.5 205.5,506.5 212.5,506.5C 212.5,519.5 212.5,532.5 212.5,545.5 Z"/></g>
<g><path style="opacity:1" fill="#555371" d="M 626.5,479.5 C 626.263,480.791 626.596,481.791 627.5,482.5C 627.614,489.01 629.614,494.843 633.5,500C 493.503,501.826 353.503,503.326 213.5,504.5C 213.5,505.833 213.5,507.167 213.5,508.5C 213.829,521.011 213.495,533.345 212.5,545.5C 212.5,532.5 212.5,519.5 212.5,506.5C 205.5,506.5 198.5,506.5 191.5,506.5C 189.4,573.161 187.4,639.828 185.5,706.5C 185.5,712.676 185.834,718.676 186.5,724.5C 186.461,725.583 186.127,726.583 185.5,727.5C 156.154,728.207 126.82,728.874 97.5,729.5C 97.5,655.5 97.5,581.5 97.5,507.5C 119.51,507.833 141.51,507.5 163.5,506.5C 141.522,506.23 119.522,506.23 97.5,506.5C 64.831,506.646 32.1643,506.98 -0.5,507.5C -0.5,499.167 -0.5,490.833 -0.5,482.5C 1.76375,481.781 4.09709,481.448 6.5,481.5C 35.3314,482.167 64.3314,482.5 93.5,482.5C 271.166,481.392 448.833,480.392 626.5,479.5 Z"/></g>
<g><path style="opacity:1" fill="#483a42" d="M 97.5,507.5 C 97.5,507.167 97.5,506.833 97.5,506.5C 119.522,506.23 141.522,506.23 163.5,506.5C 141.51,507.5 119.51,507.833 97.5,507.5 Z"/></g>
<g><path style="opacity:0.286" fill="#59192c" d="M 802.5,506.5 C 803.613,507.946 803.78,509.613 803,511.5C 801.146,517.607 799.312,523.607 797.5,529.5C 798.693,521.73 800.359,514.063 802.5,506.5 Z"/></g>
<g><path style="opacity:0.999" fill="#403b4e" d="M 738.5,623.5 C 739.492,630.648 739.825,637.981 739.5,645.5C 717.378,645.622 695.378,643.622 673.5,639.5C 665.596,637.191 657.596,635.191 649.5,633.5C 648.003,632.694 646.336,632.028 644.5,631.5C 643.893,631.624 643.56,631.957 643.5,632.5C 638.838,631.501 634.171,630.501 629.5,629.5C 613.972,625.368 598.305,621.702 582.5,618.5C 581.833,618.5 581.167,618.5 580.5,618.5C 570.058,616.699 561.558,611.699 555,603.5C 553.659,600.978 552.826,598.311 552.5,595.5C 553.155,589.519 553.988,583.519 555,577.5C 560.79,563.591 566.29,549.591 571.5,535.5C 573.653,531.183 576.986,528.016 581.5,526C 595.913,525.615 609.913,527.948 623.5,533C 639.39,538.225 650.89,548.391 658,563.5C 660.209,577.238 662.875,590.905 666,604.5C 668.06,609.62 670.393,614.62 673,619.5C 675.708,623.104 679.208,625.604 683.5,627C 702.253,631.292 720.587,630.125 738.5,623.5 Z"/></g>
<g><path style="opacity:0.231" fill="#7b2f44" d="M 571.5,535.5 C 566.29,549.591 560.79,563.591 555,577.5C 553.988,583.519 553.155,589.519 552.5,595.5C 552.167,595.5 551.833,595.5 551.5,595.5C 550.962,587.026 552.295,578.859 555.5,571C 559.692,562.447 563.192,553.614 566,544.5C 567.357,541.102 569.19,538.102 571.5,535.5 Z"/></g>
<g><path style="opacity:0.967" fill="#b20134" d="M 289.5,614.5 C 285.633,615.726 281.633,615.726 277.5,614.5C 275.996,612.164 273.996,610.331 271.5,609C 266.908,607.236 262.408,605.402 258,603.5C 257.242,599.638 257.742,595.972 259.5,592.5C 261.539,591.089 262.539,589.089 262.5,586.5C 265.815,582.571 269.148,578.571 272.5,574.5C 273.002,573.479 273.668,573.312 274.5,574C 271.416,578.578 270.916,583.412 273,588.5C 278.261,597.364 283.761,606.031 289.5,614.5 Z"/></g>
<g><path style="opacity:0.963" fill="#b20134" d="M 322.5,586.5 C 322.592,588.848 323.592,590.514 325.5,591.5C 327.31,595.31 327.81,599.31 327,603.5C 322.652,605.579 318.152,607.412 313.5,609C 311.004,610.331 309.004,612.164 307.5,614.5C 303.367,615.726 299.367,615.726 295.5,614.5C 301.487,606.538 306.987,598.205 312,589.5C 312.658,587.2 313.158,584.867 313.5,582.5C 312.652,579.49 312.152,576.49 312,573.5C 315.743,577.732 319.243,582.065 322.5,586.5 Z"/></g>
<g><path style="opacity:0.69" fill="#16b297" d="M 262.5,586.5 C 262.539,589.089 261.539,591.089 259.5,592.5C 257.727,591.108 255.727,589.941 253.5,589C 255.711,587.161 257.877,587.328 260,589.5C 260.192,587.423 260.692,585.423 261.5,583.5C 262.386,584.325 262.719,585.325 262.5,586.5 Z"/></g>
<g><path style="opacity:0.705" fill="#0fb599" d="M 325.5,591.5 C 323.592,590.514 322.592,588.848 322.5,586.5C 322.5,585.5 322.5,584.5 322.5,583.5C 323.5,583.5 324.5,583.5 325.5,583.5C 325.338,585.527 325.505,587.527 326,589.5C 327.555,587.485 329.389,587.152 331.5,588.5C 330.061,590.553 328.061,591.553 325.5,591.5 Z"/></g>
<g><path style="opacity:1" fill="#5e5c7d" d="M 755.5,611.5 C 754.766,612.708 754.433,614.041 754.5,615.5C 754.5,625.5 754.5,635.5 754.5,645.5C 749.5,645.5 744.5,645.5 739.5,645.5C 739.825,637.981 739.492,630.648 738.5,623.5C 739.775,620.396 739.775,617.396 738.5,614.5C 738.5,613.5 738.5,612.5 738.5,611.5C 744.167,611.5 749.833,611.5 755.5,611.5 Z"/></g>
<g><path style="opacity:1" fill="#970e31" d="M 755.5,611.5 C 756.552,611.351 757.552,611.517 758.5,612C 757.897,614.071 756.564,615.238 754.5,615.5C 754.433,614.041 754.766,612.708 755.5,611.5 Z"/></g>
<g><path style="opacity:1" fill="#645f79" d="M 277.5,614.5 C 281.633,615.726 285.633,615.726 289.5,614.5C 291.5,614.5 293.5,614.5 295.5,614.5C 299.367,615.726 303.367,615.726 307.5,614.5C 314.921,614.109 322.254,614.609 329.5,616C 331.646,618.357 331.979,620.857 330.5,623.5C 305.339,622.502 280.005,622.169 254.5,622.5C 253.058,620.183 253.392,618.016 255.5,616C 262.746,614.609 270.079,614.109 277.5,614.5 Z"/></g>
<g><path style="opacity:1" fill="#fac1ca" d="M 582.5,618.5 C 598.305,621.702 613.972,625.368 629.5,629.5C 629.73,645.68 629.396,661.847 628.5,678C 628.686,691.953 631.186,705.453 636,718.5C 636.499,722.821 636.666,727.154 636.5,731.5C 629.367,734.628 623.033,738.962 617.5,744.5C 616.833,738.5 616.167,732.5 615.5,726.5C 615.214,719.571 613.714,712.904 611,706.5C 600.663,682.479 591.329,658.145 583,633.5C 582.501,628.511 582.334,623.511 582.5,618.5 Z"/></g>
<g><path style="opacity:1" fill="#9c9bb4" d="M 254.5,622.5 C 280.005,622.169 305.339,622.502 330.5,623.5C 330.5,624.5 330.5,625.5 330.5,626.5C 304.939,627.143 279.606,626.476 254.5,624.5C 254.5,623.833 254.5,623.167 254.5,622.5 Z"/></g>
<g><path style="opacity:1" fill="#6d6a84" d="M 254.5,624.5 C 279.606,626.476 304.939,627.143 330.5,626.5C 330.795,628.735 330.461,630.735 329.5,632.5C 329.5,631.167 329.5,629.833 329.5,628.5C 304.477,627.843 279.811,628.51 255.5,630.5C 254.539,628.735 254.205,626.735 254.5,624.5 Z"/></g>
<g><path style="opacity:1" fill="#9c9bb4" d="M 329.5,632.5 C 304.833,632.5 280.167,632.5 255.5,632.5C 255.5,631.833 255.5,631.167 255.5,630.5C 279.811,628.51 304.477,627.843 329.5,628.5C 329.5,629.833 329.5,631.167 329.5,632.5 Z"/></g>
<g><path style="opacity:1" fill="#978883" d="M 649.5,633.5 C 648.022,633.238 646.689,633.571 645.5,634.5C 647.076,636.979 648.076,639.646 648.5,642.5C 646.326,639.485 644.659,636.151 643.5,632.5C 643.56,631.957 643.893,631.624 644.5,631.5C 646.336,632.028 648.003,632.694 649.5,633.5 Z"/></g>
<g><path style="opacity:1" fill="#f8bfc9" d="M 649.5,633.5 C 657.596,635.191 665.596,637.191 673.5,639.5C 674.306,640.728 675.306,641.728 676.5,642.5C 676.667,660.836 676.5,679.17 676,697.5C 675.295,694.524 674.129,691.858 672.5,689.5C 668.915,683.332 665.582,676.999 662.5,670.5C 659.894,663.614 656.561,657.281 652.5,651.5C 650.895,648.622 649.561,645.622 648.5,642.5C 648.076,639.646 647.076,636.979 645.5,634.5C 646.689,633.571 648.022,633.238 649.5,633.5 Z"/></g>
<g><path style="opacity:1" fill="#65607c" d="M 255.5,632.5 C 280.167,632.5 304.833,632.5 329.5,632.5C 327.76,648.825 326.093,665.159 324.5,681.5C 324.274,686.086 321.94,689.253 317.5,691C 309.239,692.121 300.906,692.621 292.5,692.5C 284.094,692.621 275.761,692.121 267.5,691C 263.345,689.189 261.345,686.023 261.5,681.5C 259.323,667.242 257.656,652.908 256.5,638.5C 255.539,636.735 255.205,634.735 255.5,632.5 Z"/></g>
<g><path style="opacity:1" fill="#9997b0" d="M 256.5,638.5 C 256.5,637.167 256.5,635.833 256.5,634.5C 280.5,634.5 304.5,634.5 328.5,634.5C 328.5,635.833 328.5,637.167 328.5,638.5C 304.5,638.5 280.5,638.5 256.5,638.5 Z"/></g>
<g><path style="opacity:0.935" fill="#372a26" d="M 673.5,639.5 C 695.378,643.622 717.378,645.622 739.5,645.5C 744.5,645.5 749.5,645.5 754.5,645.5C 734.643,649.008 714.643,649.675 694.5,647.5C 694.5,649.5 694.5,651.5 694.5,653.5C 688.917,650.54 683.25,647.874 677.5,645.5C 677.737,644.209 677.404,643.209 676.5,642.5C 675.306,641.728 674.306,640.728 673.5,639.5 Z"/></g>
<g><path style="opacity:1" fill="#5e5c7c" d="M 677.5,645.5 C 683.25,647.874 688.917,650.54 694.5,653.5C 694.5,661.5 694.5,669.5 694.5,677.5C 694.5,693.167 694.5,708.833 694.5,724.5C 694.169,732.196 694.503,739.862 695.5,747.5C 696.417,746.873 697.417,746.539 698.5,746.5C 719.896,746.589 740.562,750.422 760.5,758C 764.276,759.947 767.61,762.447 770.5,765.5C 771.867,769.105 771.7,772.771 770,776.5C 766.932,779.083 763.765,781.416 760.5,783.5C 736.075,791.823 710.909,795.823 685,795.5C 660.398,795.63 636.565,791.63 613.5,783.5C 609.249,781.575 605.583,778.908 602.5,775.5C 601.671,772.531 601.505,769.531 602,766.5C 603.039,765.29 604.206,764.29 605.5,763.5C 605.774,766.645 607.441,768.645 610.5,769.5C 621.638,768.287 631.972,764.787 641.5,759C 643.749,757.255 645.416,755.088 646.5,752.5C 656.115,758.461 666.115,759.127 676.5,754.5C 676.821,748.974 676.488,743.64 675.5,738.5C 675.833,737.833 676.167,737.167 676.5,736.5C 677.098,706.355 677.431,676.022 677.5,645.5 Z"/></g>
<g><path style="opacity:0.169" fill="#858078" d="M 652.5,651.5 C 656.561,657.281 659.894,663.614 662.5,670.5C 658.404,664.644 655.07,658.311 652.5,651.5 Z"/></g>
<g><path style="opacity:0.097" fill="#b40034" d="M 261.5,681.5 C 261.345,686.023 263.345,689.189 267.5,691C 275.761,692.121 284.094,692.621 292.5,692.5C 300.906,692.621 309.239,692.121 317.5,691C 321.94,689.253 324.274,686.086 324.5,681.5C 335.957,682.018 347.291,683.518 358.5,686C 361.698,686.848 364.531,688.348 367,690.5C 367.711,692.367 367.211,693.867 365.5,695C 355.564,698.936 345.23,701.269 334.5,702C 306.833,704 279.167,704 251.5,702C 240.441,701.322 229.774,698.989 219.5,695C 217.789,693.867 217.289,692.367 218,690.5C 223.592,686.888 229.758,684.721 236.5,684C 244.782,682.59 253.115,681.756 261.5,681.5 Z"/></g>
<g><path style="opacity:1" fill="#f1bdc4" d="M 694.5,677.5 C 696.798,683.915 698.632,690.582 700,697.5C 702.88,703.962 706.713,709.629 711.5,714.5C 705.333,717.004 699.666,720.337 694.5,724.5C 694.5,708.833 694.5,693.167 694.5,677.5 Z"/></g>
<g><path style="opacity:0.012" fill="#656360" d="M 580.5,618.5 C 581.167,618.5 581.833,618.5 582.5,618.5C 582.334,623.511 582.501,628.511 583,633.5C 591.329,658.145 600.663,682.479 611,706.5C 613.714,712.904 615.214,719.571 615.5,726.5C 615.5,733.167 615.5,739.833 615.5,746.5C 611.53,749.639 608.03,753.305 605,757.5C 604.51,759.545 604.677,761.545 605.5,763.5C 604.206,764.29 603.039,765.29 602,766.5C 601.505,769.531 601.671,772.531 602.5,775.5C 600.859,773.713 599.859,771.546 599.5,769C 601.546,764.644 603.046,760.144 604,755.5C 606.667,751.5 610,748.167 614,745.5C 615.427,730.677 613.427,716.343 608,702.5C 599.113,682.059 590.78,661.393 583,640.5C 581.184,633.275 580.351,625.941 580.5,618.5 Z"/></g>
<g><path style="opacity:0.112" fill="#64615f" d="M 676.5,642.5 C 677.404,643.209 677.737,644.209 677.5,645.5C 677.431,676.022 677.098,706.355 676.5,736.5C 676.666,730.824 676.499,725.157 676,719.5C 671.725,726.405 667.225,733.072 662.5,739.5C 658.158,740.193 653.825,741.026 649.5,742C 647.622,743.543 646.122,745.376 645,747.5C 644.283,746.956 643.783,746.289 643.5,745.5C 644.977,743.193 646.977,741.36 649.5,740C 653.469,739.147 657.469,738.481 661.5,738C 666.642,730.882 671.142,723.382 675,715.5C 676.135,706.608 675.302,697.942 672.5,689.5C 674.129,691.858 675.295,694.524 676,697.5C 676.5,679.17 676.667,660.836 676.5,642.5 Z"/></g>
<g><path style="opacity:0.998" fill="#7e0125" d="M 711.5,714.5 C 714.43,720.697 717.097,727.031 719.5,733.5C 719.124,735.383 718.124,736.883 716.5,738C 712.566,740.464 708.566,742.631 704.5,744.5C 702.214,744.595 700.214,745.262 698.5,746.5C 697.417,746.539 696.417,746.873 695.5,747.5C 694.503,739.862 694.169,732.196 694.5,724.5C 699.666,720.337 705.333,717.004 711.5,714.5 Z"/></g>
<g><path style="opacity:1" fill="#f6bfc7" d="M 676.5,736.5 C 676.167,737.167 675.833,737.833 675.5,738.5C 671.306,741.597 666.639,743.597 661.5,744.5C 661.629,742.784 661.962,741.117 662.5,739.5C 667.225,733.072 671.725,726.405 676,719.5C 676.499,725.157 676.666,730.824 676.5,736.5 Z"/></g>
<g><path style="opacity:1" fill="#7e0125" d="M 636.5,731.5 C 639.341,735.849 641.674,740.516 643.5,745.5C 643.783,746.289 644.283,746.956 645,747.5C 646.122,745.376 647.622,743.543 649.5,742C 653.825,741.026 658.158,740.193 662.5,739.5C 661.962,741.117 661.629,742.784 661.5,744.5C 666.639,743.597 671.306,741.597 675.5,738.5C 676.488,743.64 676.821,748.974 676.5,754.5C 666.115,759.127 656.115,758.461 646.5,752.5C 645.416,755.088 643.749,757.255 641.5,759C 631.972,764.787 621.638,768.287 610.5,769.5C 607.441,768.645 605.774,766.645 605.5,763.5C 604.677,761.545 604.51,759.545 605,757.5C 608.03,753.305 611.53,749.639 615.5,746.5C 616.5,746.167 617.167,745.5 617.5,744.5C 623.033,738.962 629.367,734.628 636.5,731.5 Z"/></g>
<g><path style="opacity:0.525" fill="#9a9788" d="M 615.5,726.5 C 616.167,732.5 616.833,738.5 617.5,744.5C 617.167,745.5 616.5,746.167 615.5,746.5C 615.5,739.833 615.5,733.167 615.5,726.5 Z"/></g>
<g><path style="opacity:0.152" fill="#575557" d="M 704.5,744.5 C 725.914,744.948 746.248,749.782 765.5,759C 767.79,760.777 769.457,762.944 770.5,765.5C 767.61,762.447 764.276,759.947 760.5,758C 740.562,750.422 719.896,746.589 698.5,746.5C 700.214,745.262 702.214,744.595 704.5,744.5 Z"/></g>
<g><path style="opacity:1" fill="#4a3430" d="M 694.5,758.5 C 697.649,758.947 700.316,760.28 702.5,762.5C 697.687,765.703 692.353,767.037 686.5,766.5C 681.209,766.859 676.209,765.859 671.5,763.5C 670.289,762.726 670.289,761.893 671.5,761C 673.025,759.991 674.692,759.491 676.5,759.5C 676.5,760.5 676.5,761.5 676.5,762.5C 682.5,762.5 688.5,762.5 694.5,762.5C 694.5,761.167 694.5,759.833 694.5,758.5 Z"/></g>
<g><path style="opacity:0.096" fill="#b30134" d="M 613.5,783.5 C 636.565,791.63 660.398,795.63 685,795.5C 710.909,795.823 736.075,791.823 760.5,783.5C 764.622,783.697 768.622,784.53 772.5,786C 774.013,788.454 773.346,790.121 770.5,791C 756.139,793.765 741.806,795.599 727.5,796.5C 701.833,796.5 676.167,796.5 650.5,796.5C 636.531,795.532 622.531,793.699 608.5,791C 607.5,790.5 606.5,790 605.5,789.5C 604.479,788.998 604.312,788.332 605,787.5C 607.682,785.671 610.516,784.337 613.5,783.5 Z"/></g>
</svg>
